<svg width="843" height="1787" viewBox="0 0 843 1787" fill="none" xmlns="http://www.w3.org/2000/svg">
<path d="M47.0608 712.876C47.6992 712.344 59.9353 706.704 74.4058 700.426C88.8764 694.254 101.219 689.252 101.751 689.358C102.283 689.465 103.879 692.232 105.262 695.424C107.177 700 107.603 702.767 107.39 708.832C107.177 712.982 106.858 716.707 106.539 717.026C106.22 717.345 99.5165 719.58 77.2787 726.178L73.3418 721.921C71.1074 719.58 67.7026 716.813 65.8938 715.856C63.4465 714.579 59.8289 713.94 54.1896 713.94C48.7277 713.94 46.3514 713.585 47.0608 712.876Z" fill="#004673"/>
<path d="M736.327 701.17C736.965 698.297 738.561 694.254 739.731 692.338C740.902 690.423 742.179 689.039 742.604 689.252C743.03 689.571 754.628 694.573 768.353 700.319C782.079 706.172 794.209 711.28 795.273 711.599C796.23 712.025 797.082 712.663 797.082 713.195C797.082 713.621 793.57 713.94 789.314 713.94C783.675 714.046 780.483 714.579 777.397 716.281C775.057 717.452 771.545 720.218 766.225 726.178L752.712 722.347C745.052 720.218 738.455 717.771 737.71 716.813C737.071 715.749 736.114 713.089 735.795 710.748C735.369 708.407 735.688 704.15 736.327 701.17Z" fill="#004673"/>
<path d="M45.4648 1011.69C46.316 1009.45 47.8056 1006.79 48.7632 1005.73C49.7208 1004.66 50.9976 1004.02 51.636 1004.24C52.4872 1004.56 52.9128 1018.5 53.3384 1093.31L50.9976 1093.09C49.7208 1092.88 47.8056 1091.39 46.7416 1089.58C45.6776 1087.77 43.8687 1081.81 42.6983 1076.28C41.1023 1068.83 40.5703 1062.02 40.5703 1050.21C40.5703 1040.63 41.2087 1030.52 42.1663 1024.99C43.0175 1019.77 44.5072 1013.81 45.4648 1011.69Z" fill="#004673"/>
<path d="M792.4 1093.09C790.804 1093.31 790.698 1089.47 790.698 1048.61C790.698 1019.56 791.017 1003.92 791.762 1003.92C792.4 1003.92 793.783 1004.98 794.954 1006.37C796.23 1007.64 798.146 1011.79 799.316 1015.62C800.486 1019.45 801.976 1028.29 802.615 1035.31C803.572 1044.99 803.572 1051.27 802.615 1061.38C801.976 1068.72 800.593 1077.56 799.742 1081.07C798.784 1084.58 797.188 1088.62 796.124 1090.11C795.06 1091.6 793.358 1092.88 792.4 1093.09Z" fill="#004673"/>
<path d="M108.987 1663.15C103.773 1654.43 97.4958 1643.46 94.9421 1639C92.4949 1634.42 90.8989 1630.7 91.3245 1630.7C91.7501 1630.7 94.0909 1631.97 96.4317 1633.67C98.7726 1635.38 103.029 1639.31 106.008 1642.51C108.881 1645.7 115.903 1655.81 121.436 1664.85C129.735 1678.37 133.459 1683.16 142.184 1691.99C148.036 1697.84 156.442 1705.18 160.804 1708.27C165.167 1711.36 172.083 1715.83 176.233 1718.17C180.382 1720.51 184.745 1722.53 186.128 1722.64C187.405 1722.64 188.894 1723.28 189.32 1724.02C189.745 1724.66 194.64 1727 200.173 1729.13C205.706 1731.26 211.451 1733.17 212.941 1733.38C214.43 1733.7 222.304 1736.15 230.497 1739.13C238.69 1742 251.032 1745.94 257.949 1747.86C269.759 1751.26 270.717 1751.69 273.164 1755.52C274.547 1757.65 275.611 1759.67 275.398 1759.99C275.292 1760.31 267.95 1759.03 259.225 1757.33C250.394 1755.52 236.775 1752.43 228.901 1750.3C221.027 1748.28 208.366 1744.56 200.705 1742C193.15 1739.45 181.553 1734.98 175.169 1732.11C168.784 1729.34 160.592 1725.08 157.08 1722.74C153.569 1720.51 146.866 1714.76 142.184 1709.97C137.396 1705.29 130.161 1696.46 126.011 1690.29C121.968 1684.12 114.201 1671.98 108.987 1663.15Z" fill="#75181B"/>
<path d="M736.434 1643.04C738.456 1640.7 742.499 1636.97 745.372 1634.74C748.138 1632.5 750.798 1630.7 751.224 1630.7C751.649 1630.7 750.585 1633.46 748.883 1636.87C747.074 1640.17 742.073 1649.1 737.711 1656.77C733.348 1664.43 725.368 1677.3 719.942 1685.5C714.515 1693.69 707.812 1702.95 704.939 1706.14C702.066 1709.34 696.108 1714.76 691.746 1718.27C687.277 1721.89 678.658 1727 672.061 1730.19C665.677 1733.28 653.441 1738.28 644.929 1741.15C636.417 1744.03 622.798 1748.18 614.605 1750.3C606.412 1752.33 592.793 1755.52 584.28 1757.22C575.768 1758.92 568.746 1760.31 568.533 1760.2C568.32 1760.09 568.427 1759.03 568.852 1757.86C569.172 1756.69 570.236 1754.67 571.3 1753.28C572.576 1751.58 576.3 1750.09 585.345 1747.75C592.048 1745.94 603.326 1742.54 610.349 1740.2C617.371 1737.75 625.883 1734.66 629.288 1733.28C632.587 1731.89 635.672 1730.83 636.204 1730.94C636.63 1731.04 638.864 1730.51 641.205 1729.77C643.546 1728.92 648.121 1727.11 651.313 1725.72C654.505 1724.23 659.825 1721.79 663.017 1720.3C666.209 1718.81 673.125 1714.66 678.445 1711.14C683.765 1707.53 692.703 1700.08 698.449 1694.54C704.62 1688.69 711.323 1680.92 714.515 1675.92C717.601 1671.24 722.921 1662.83 726.432 1657.3C729.837 1651.77 734.306 1645.27 736.434 1643.04Z" fill="#75181B"/>
<path d="M536.4 1758.28C546.614 1756.58 558.531 1754.35 562.893 1753.28C567.15 1752.22 570.874 1751.69 571.193 1752.01C571.406 1752.33 570.661 1754.24 569.49 1756.26C568.426 1758.28 566.298 1760.31 564.915 1760.73C563.638 1761.16 555.552 1762.43 547.04 1763.61C538.528 1764.78 524.696 1766.48 516.183 1767.44C507.671 1768.29 494.052 1769.46 485.859 1770.1C477.666 1770.73 456.386 1771.48 438.511 1771.91C418.933 1772.22 395.631 1772.01 379.99 1771.27C365.626 1770.52 346.261 1769.25 336.898 1768.39C327.534 1767.54 311.042 1765.63 300.189 1764.14C289.336 1762.65 279.548 1761.26 278.377 1760.94C277.207 1760.63 275.185 1758.82 273.802 1756.79C272.525 1754.77 271.674 1752.75 271.993 1752.22C272.312 1751.79 278.164 1752.75 285.08 1754.35C291.89 1755.94 304.977 1758.5 314.022 1759.88C323.066 1761.37 336.685 1763.29 344.346 1764.14C351.9 1765.09 366.584 1766.27 376.798 1767.01C388.609 1767.76 408.399 1767.97 431.063 1767.65C450.64 1767.33 473.836 1766.27 482.667 1765.41C491.392 1764.56 502.883 1763.29 508.203 1762.65C513.417 1762.01 526.185 1759.99 536.4 1758.28Z" fill="#C2C8CC"/>
<path d="M149.419 1671.66C147.504 1667.62 146.014 1663.57 146.121 1662.83C146.227 1661.98 149.845 1665.38 154.313 1670.17C158.782 1674.96 166.23 1681.77 170.912 1685.28C175.594 1688.79 180.488 1691.99 181.765 1692.52C183.255 1693.16 183.893 1694.01 183.467 1694.75C183.148 1695.5 183.255 1695.82 183.787 1695.39C184.319 1694.97 189.426 1696.99 195.065 1699.86C200.811 1702.84 211.876 1707.31 219.537 1709.97C227.305 1712.63 240.605 1716.78 249.117 1719.12C257.629 1721.46 272.738 1724.98 282.633 1727C292.528 1729.02 308.595 1731.89 318.277 1733.28C327.96 1734.77 345.197 1736.79 356.582 1737.85C372.436 1739.24 387.013 1739.66 418.826 1739.66C449.683 1739.66 465.643 1739.24 481.071 1737.75C492.456 1736.79 510.651 1734.77 521.503 1733.28C532.356 1731.89 550.551 1728.81 561.936 1726.47C573.321 1724.12 589.6 1720.4 598.112 1718.06C606.624 1715.72 619.286 1711.78 626.309 1709.44C633.331 1706.99 643.333 1702.95 648.653 1700.29C653.866 1697.73 660.144 1694.54 662.485 1693.16C664.826 1691.88 669.614 1688.58 673.125 1685.92C676.636 1683.15 681.637 1678.9 684.297 1676.34C686.957 1673.79 690.681 1669.85 692.596 1667.62C694.512 1665.49 696.32 1663.89 696.746 1664.21C697.278 1664.43 695.895 1668.15 693.767 1672.41C691.745 1676.66 687.702 1683.79 684.829 1688.16C681.956 1692.52 675.466 1700.18 670.465 1705.18C665.464 1710.18 659.825 1715.61 657.91 1717.21C656.101 1718.8 654.292 1720.08 653.973 1720.08C653.654 1720.08 651.206 1721.57 648.333 1723.49C645.567 1725.4 639.502 1728.59 634.821 1730.83C630.139 1732.96 619.818 1736.89 611.944 1739.55C604.071 1742.32 592.047 1745.94 585.344 1747.75C578.641 1749.56 572.363 1751.15 571.512 1751.37C570.661 1751.58 565.341 1752.75 559.808 1753.92C554.275 1755.2 542.464 1757.33 533.74 1758.82L532.525 1759.01C523.881 1760.36 513.181 1762.04 508.203 1762.65C502.883 1763.28 491.392 1764.56 482.667 1765.41C473.836 1766.26 450.64 1767.33 431.063 1767.65C408.399 1767.97 388.609 1767.75 376.798 1767.01C366.584 1766.26 352.007 1765.09 344.346 1764.14C336.685 1763.28 323.066 1761.37 314.021 1759.88C304.977 1758.5 291.996 1756.05 285.293 1754.56C278.59 1753.18 266.886 1750.2 259.225 1748.07C251.564 1746.05 239.328 1742.21 231.773 1739.66C224.325 1737.11 214.324 1732.96 209.429 1730.62C204.641 1728.17 198.151 1724.55 195.065 1722.63C192.086 1720.61 189.532 1719.12 189.532 1719.23C189.426 1719.44 187.404 1717.85 184.957 1715.82C182.51 1713.8 176.87 1708.48 172.402 1704.12C168.039 1699.76 161.868 1692.31 158.676 1687.62C155.59 1682.94 151.334 1675.71 149.419 1671.66Z" fill="#4790BF"/>
<path d="M338.494 1.49939C356.37 0.860906 379.778 0.222423 390.631 0.116009C401.484 -0.0968185 424.679 0.00959532 442.235 0.222423C459.791 0.328837 488.52 0.967319 506.076 1.6058C523.632 2.13787 547.785 3.30842 559.808 4.26615C571.832 5.11746 587.579 6.50084 594.921 7.45856C602.262 8.30987 612.264 10.0125 617.265 11.183C622.266 12.3536 630.139 15.2268 634.821 17.5679C639.503 19.909 646.951 24.6976 651.313 28.2092C655.676 31.7209 665.997 40.4468 674.189 47.5766C682.382 54.7063 696.959 68.008 706.535 77.0532C716.218 86.0984 732.71 102.699 743.244 113.872C753.884 124.939 764.95 137.39 768.035 141.54C771.121 145.584 775.483 152.501 777.824 156.864C780.165 161.226 783.144 167.718 784.315 171.229C785.591 174.741 787.187 180.062 788.039 182.935C788.89 185.914 790.06 191.554 790.699 195.705C791.231 199.855 792.507 214.646 793.359 228.693C794.316 242.739 795.487 270.088 795.912 289.349C796.444 309.354 796.444 346.067 795.912 374.48C795.38 402.041 794.423 430.028 793.891 436.732C793.252 443.436 791.763 453.226 790.592 458.547C788.89 466.208 788.677 469.082 789.528 472.912C790.273 475.998 790.699 519.734 790.699 593.373C790.699 685.314 790.379 709.151 789.315 709.045C788.677 709.045 780.59 705.746 755.054 694.679L755.586 660.733C756.012 632.001 755.905 626.893 754.629 627.319C753.777 627.532 752.501 629.766 751.649 632.214C750.905 634.768 749.734 636.79 749.202 636.79C748.67 636.79 748.138 637.854 748.245 639.131C748.245 640.514 744.946 650.623 740.903 661.797C736.753 672.97 728.773 695.211 723.134 711.279C717.495 727.348 709.515 751.078 705.471 763.954C701.322 776.83 694.938 798.113 691.214 811.308C687.383 824.504 680.999 848.872 676.956 865.579C672.806 882.286 668.231 903.356 666.848 912.401C665.358 921.447 663.443 935.387 662.592 943.261C661.634 951.136 660.464 964.544 659.932 973.057C659.293 981.57 658.548 998.596 658.229 1010.83C657.804 1023.07 658.016 1046.16 658.655 1061.91C659.293 1077.66 660.57 1100.01 661.421 1111.4C662.379 1122.78 664.294 1142.89 665.784 1156.09C667.167 1169.28 669.827 1190.14 671.636 1202.38C673.338 1214.62 676.743 1236.22 679.084 1250.27C681.425 1264.31 683.978 1278.15 684.83 1281.13C685.574 1284 687.383 1287.83 688.766 1289.53C690.15 1291.23 692.597 1293.26 694.406 1294C696.534 1294.85 698.662 1294.96 700.79 1294.32C702.599 1293.79 705.152 1292.3 706.535 1290.92C707.919 1289.64 713.026 1283.25 718.027 1276.87C723.028 1270.48 728.667 1261.76 730.688 1257.71C732.604 1253.67 735.476 1245.48 736.966 1239.62C739.094 1231.22 739.945 1224.73 740.69 1208.23C741.222 1196.85 742.286 1168.65 743.031 1145.66C743.776 1122.78 744.627 1103.95 744.946 1103.95C745.265 1103.95 745.265 1101.61 745.159 1098.84C744.946 1096.07 745.797 1062.23 746.968 1023.6C748.245 984.976 749.628 935.174 750.266 912.933C750.798 890.693 751.543 862.174 751.862 849.617C752.181 837.06 752.926 803.54 753.565 775.128C754.097 746.715 754.735 723.411 754.841 723.304C754.948 723.091 757.608 723.73 766.226 726.177L766.014 732.243C765.907 735.648 766.333 739.373 766.971 740.543C767.61 741.714 769.738 743.416 771.653 744.374C773.674 745.332 778.782 747.354 790.699 751.717L791.231 1224.73L794.742 1235.9C796.763 1242.07 798.998 1250.69 799.849 1255.05C800.7 1259.42 802.083 1272.4 802.935 1283.79C803.786 1295.17 805.063 1318.69 805.595 1335.93C806.446 1357.96 806.446 1377.32 805.595 1400.84C804.956 1419.25 803.786 1445.32 802.935 1458.84C801.977 1472.35 800.594 1489.8 799.636 1497.68C798.785 1505.55 796.87 1518.96 795.38 1527.47C793.891 1535.99 791.55 1547.69 790.06 1553.54C788.571 1559.4 786.336 1567.59 785.166 1571.63C783.995 1575.68 780.803 1584.62 778.143 1591.32C773.994 1602.07 772.185 1605.16 763.354 1616.33C757.501 1623.78 751.224 1630.48 748.351 1632.5C745.585 1634.31 740.903 1638.36 738.03 1641.55C735.051 1644.63 729.837 1651.76 726.326 1657.3C722.921 1662.83 717.601 1671.24 714.515 1675.92C711.323 1680.92 704.62 1688.69 698.449 1694.54C692.703 1700.08 683.766 1707.53 678.445 1711.14C673.125 1714.65 666.103 1718.91 662.698 1720.61C657.378 1723.38 656.314 1723.59 655.569 1722.21C654.931 1720.93 654.718 1721.04 654.292 1722.74C653.973 1724.23 651.313 1725.83 645.142 1728.28C640.354 1730.19 636.417 1731.26 636.417 1730.72C636.417 1730.19 637.268 1729.45 638.226 1729.13C639.29 1728.91 643.12 1726.79 646.738 1724.34C650.462 1722 653.654 1720.08 653.973 1720.08C654.292 1720.08 656.101 1718.8 657.91 1717.21C659.825 1715.61 665.465 1710.19 670.465 1705.18C675.466 1700.18 681.957 1692.52 684.83 1688.16C687.702 1683.79 691.746 1676.67 693.767 1672.41C695.895 1668.15 697.279 1664.43 696.746 1664.21C696.321 1663.9 694.512 1665.49 692.597 1667.62C690.682 1669.85 686.958 1673.79 684.298 1676.35C681.638 1678.9 675.679 1683.9 670.997 1687.31C666.316 1690.82 661.847 1693.37 661.102 1693.05C660.464 1692.73 659.612 1693.16 659.293 1694.01C658.974 1694.86 654.292 1697.73 648.866 1700.29C643.546 1702.95 633.331 1706.99 626.309 1709.44C619.286 1711.78 606.625 1715.72 598.113 1718.06C589.601 1720.4 573.321 1724.13 561.936 1726.47C550.551 1728.81 532.357 1731.89 521.504 1733.28C510.651 1734.77 492.456 1736.79 481.072 1737.75C465.643 1739.24 449.683 1739.66 418.827 1739.66C387.013 1739.66 372.436 1739.24 356.582 1737.85C345.197 1736.79 327.96 1734.77 318.278 1733.28C308.595 1731.89 292.529 1729.02 282.634 1727C272.738 1724.98 257.629 1721.47 249.117 1719.12C240.605 1716.78 227.305 1712.63 219.538 1709.97C211.877 1707.31 200.811 1702.74 195.066 1699.86C189.426 1696.88 183.042 1693.48 181.021 1692.31C178.999 1691.03 174.211 1687.73 170.381 1684.97C166.55 1682.2 159.528 1675.81 154.633 1670.71C149.845 1665.7 145.908 1662.19 145.908 1662.83C145.908 1663.58 147.504 1667.62 149.42 1671.66C151.335 1675.71 155.591 1682.94 158.676 1687.63C161.868 1692.31 168.04 1699.76 172.402 1704.12C176.871 1708.48 182.51 1713.8 184.957 1715.83C187.405 1717.85 189.426 1719.44 189.533 1719.23C189.533 1719.12 192.086 1720.61 195.066 1722.64C198.151 1724.55 203.684 1727.64 207.302 1729.55C211.026 1731.36 213.899 1733.06 213.686 1733.38C213.579 1733.7 208.153 1732 201.769 1729.66C195.385 1727.21 189.746 1724.76 189.32 1724.02C188.894 1723.27 187.405 1722.64 186.128 1722.64C184.745 1722.53 180.382 1720.51 176.233 1718.17C172.083 1715.83 165.167 1711.36 160.804 1708.27C156.442 1705.18 148.036 1697.84 142.184 1691.99C133.459 1683.16 129.735 1678.37 121.436 1664.75C115.903 1655.7 108.668 1645.49 105.476 1641.97C102.284 1638.46 97.6022 1634.42 95.2614 1632.93C92.6014 1631.33 86.5365 1624.74 80.3653 1616.86C71.4276 1605.47 69.2995 1601.96 65.4691 1592.39C63.1283 1586.21 59.4043 1575.25 57.2762 1567.91C55.1482 1560.57 52.169 1549.08 50.7858 1542.37C49.2962 1535.67 47.1681 1523.43 45.9977 1515.24C44.8273 1507.04 43.1249 1491.72 42.2737 1481.18C41.3161 1470.65 40.1457 1454.15 39.5073 1444.47C38.8689 1434.79 38.124 1407.97 37.6984 1384.88C37.2728 1358.38 37.592 1333.59 38.3368 1317.84C38.9753 1304.11 40.2521 1284.96 41.1033 1275.27C42.0609 1264.52 43.6569 1253.78 45.2529 1247.6C46.7425 1242.07 48.977 1233.88 52.4882 1221.53L52.2754 752.249L62.5963 748.311C68.3419 746.077 73.9812 743.31 75.1516 742.033C76.854 740.224 77.2796 738.308 77.2796 726.177L82.8125 724.581C85.8981 723.73 88.5581 722.985 88.6645 722.985C88.8672 722.985 89.2629 741.998 89.7596 765.87L89.8349 769.488C90.2606 795.133 91.1118 834.719 91.6438 857.598C92.2822 880.477 93.4526 925.171 94.4102 957.095C95.2614 989.019 96.6446 1034.46 97.4958 1058.19C98.347 1084.26 98.5598 1101.39 97.9214 1101.5C97.3894 1101.71 96.9638 1102.35 96.9638 1102.88C96.9638 1103.41 97.4958 1103.73 98.0278 1103.41C98.6662 1103.09 99.0918 1104.8 99.0918 1107.35C99.0918 1109.91 100.049 1137.57 101.22 1168.86C102.922 1214.4 103.773 1227.71 105.369 1235.37C106.434 1240.69 108.349 1247.6 109.626 1250.8C110.796 1253.99 113.562 1259.63 115.797 1263.25C118.031 1266.97 123.67 1274.85 128.352 1280.7C133.034 1286.66 138.141 1292.19 139.737 1292.94C141.439 1293.79 144.312 1294.43 146.334 1294.43C148.888 1294.43 150.909 1293.58 153.037 1291.45C154.633 1289.74 156.868 1286.02 157.825 1283.15C158.889 1280.27 161.336 1268.14 163.358 1256.12C165.38 1244.09 168.785 1222.81 170.806 1208.76C172.828 1194.72 175.701 1172.48 177.19 1159.28C178.68 1146.09 180.701 1126.93 181.553 1116.72C182.404 1106.5 183.681 1086.39 184.319 1072.02C185.064 1056.59 185.277 1032.54 184.957 1012.96C184.532 994.872 183.574 971.567 182.617 961.352C181.659 951.136 179.957 935.812 178.786 927.299C177.616 918.786 175.701 906.868 174.53 900.696C173.36 894.524 169.317 876.966 165.486 861.642C161.762 846.212 155.059 821.098 150.59 805.775C146.228 790.345 137.396 762.251 131.119 743.203C124.734 724.155 113.988 693.083 107.072 674.034C100.262 654.986 94.9422 638.812 95.2614 638.173C95.5806 637.428 95.3678 637.002 94.8358 637.322C94.3038 637.641 92.8142 635.193 91.6438 632.001C90.4734 628.809 89.5157 625.616 89.5157 625.084C89.5157 624.552 89.1965 623.807 88.6645 623.594C88.2389 623.382 88.0261 639.237 88.5581 694.785L71.534 701.915C62.0643 705.959 53.8714 709.151 53.3394 709.151C52.5946 709.151 52.2754 670.416 52.2754 595.076C52.2754 514.733 52.701 478.978 53.5522 474.509C54.5098 468.975 54.4034 466.528 52.3818 456.418C51.105 449.927 49.6154 437.264 49.0834 428.219C48.4449 419.173 47.7001 386.292 47.3809 355.325C46.9553 318.4 47.0617 288.817 47.9129 269.662C48.5513 253.594 49.8282 230.395 50.7858 218.051C51.637 205.707 53.0202 192.619 53.8714 188.788C54.7226 184.957 56.6378 178.253 58.1274 173.89C59.7235 169.527 62.9155 162.078 65.3627 157.396C67.8099 152.713 72.4916 145.264 75.79 140.901C79.1948 136.538 90.1542 124.301 100.369 113.766C110.477 103.231 126.011 87.6946 134.736 79.1814C143.567 70.6684 157.932 57.5794 166.55 49.9177C175.275 42.2559 186.341 32.8915 191.235 28.8477C196.13 24.9104 203.152 20.2282 206.77 18.4192C210.494 16.5037 216.133 14.1626 219.325 12.9921C222.517 11.9279 229.22 10.3317 234.221 9.48042C239.222 8.62911 250.181 7.24573 258.693 6.39442C267.205 5.4367 281.25 4.26615 290.082 3.73408C298.807 3.09559 320.619 2.13787 338.494 1.49939Z" fill="#BA002C"/>
<path d="M18.1201 725.859C20.7801 723.837 28.0154 720.007 34.1866 717.346C40.3579 714.686 45.678 712.558 45.9972 712.451C46.4228 712.345 46.5292 712.877 46.3164 713.409C45.9972 714.047 47.3804 714.26 49.8276 713.835C52.062 713.409 55.9989 713.409 58.6589 713.835C61.3189 714.154 65.4685 715.75 67.9158 717.346C70.363 719.049 73.4486 721.709 74.7254 723.518C76.6407 726.072 77.1727 728.094 77.2791 733.308C77.2791 738.523 76.8535 740.332 75.151 742.034C73.9806 743.205 68.4478 745.865 62.9149 748.1C57.3821 750.228 42.6987 755.762 30.4626 760.337C18.2265 765.02 7.16078 768.744 5.99036 768.851C4.81995 768.851 2.90473 767.786 1.73432 766.509C-0.180896 764.594 -0.287297 763.53 0.351109 756.719C0.883115 752.144 2.26633 746.716 3.96874 743.205C5.45836 740.012 8.11839 735.543 9.9272 733.415C11.736 731.286 15.3537 727.881 18.1201 725.859Z" fill="#0063A6"/>
<path d="M789.315 713.941C793.784 713.941 797.082 713.515 797.082 712.877C797.082 712.345 797.614 712.558 798.146 713.409C798.678 714.26 799.104 714.686 798.891 714.26C798.785 713.835 803.253 715.324 808.786 717.559C814.319 719.687 821.022 722.986 823.682 724.795C826.342 726.604 830.386 730.116 832.62 732.67C834.961 735.224 838.046 740.012 839.536 743.205C841.238 747.036 842.409 751.824 842.728 757.145C843.26 763.53 843.047 765.658 841.771 767.041C840.919 767.999 839.004 768.851 837.515 768.744C836.025 768.744 827.726 765.977 818.894 762.785C810.169 759.486 796.231 754.165 788.038 750.973C779.845 747.887 771.971 744.695 770.588 743.95C769.205 743.205 767.396 741.183 766.758 739.48C765.907 737.458 765.694 734.16 766.119 730.754C766.545 726.711 767.609 724.37 769.95 721.922C771.759 720.007 775.057 717.559 777.398 716.282C780.59 714.579 783.569 714.047 789.315 713.941Z" fill="#0063A6"/>
<path d="M85.5783 1635.48C79.4071 1623.25 73.9806 1612.07 73.4486 1610.8C72.9166 1609.41 72.8102 1608.35 73.023 1608.35C73.3422 1608.35 77.0663 1612.82 81.3223 1618.25C85.5783 1623.57 93.0264 1635.27 97.9209 1644C102.815 1652.83 110.795 1666.45 115.796 1674.33C120.691 1682.2 127.5 1692.42 130.799 1697.1C134.097 1701.67 139.949 1708.38 143.78 1712C147.61 1715.51 153.569 1720.4 157.08 1722.74C160.591 1725.08 168.784 1729.34 175.168 1732.11C181.552 1734.98 193.15 1739.45 200.704 1742C208.365 1744.56 221.027 1748.28 228.901 1750.31C236.774 1752.43 250.181 1755.52 258.693 1757.22C267.205 1758.92 280.611 1761.37 288.485 1762.54C296.359 1763.71 311.468 1765.63 322.001 1766.8C332.535 1767.97 349.027 1769.57 358.71 1770.31C368.924 1771.06 395.312 1771.59 421.486 1771.59C448.406 1771.69 473.836 1771.06 484.263 1770.31C493.946 1769.57 510.438 1767.97 520.971 1766.8C531.505 1765.73 546.082 1763.82 553.424 1762.65C560.765 1761.48 568.107 1760.2 569.916 1759.99C571.725 1759.67 578.109 1758.5 584.28 1757.22C590.451 1756.05 603.113 1753.07 612.476 1750.73C621.84 1748.39 636.417 1744.03 644.929 1741.15C653.441 1738.28 665.677 1733.28 672.061 1730.19C678.658 1727 687.276 1721.89 691.745 1718.27C696.108 1714.76 702.066 1709.34 704.939 1706.14C707.812 1702.95 714.515 1693.69 719.941 1685.5C725.368 1677.31 733.348 1664.43 737.71 1656.77C742.073 1649.11 747.393 1639.85 749.414 1636.02C751.542 1632.19 756.862 1624.42 761.331 1618.78C765.8 1613.03 769.631 1608.35 769.95 1608.35C770.269 1608.35 769.95 1609.95 769.205 1611.86C768.567 1613.67 763.14 1624.84 757.182 1636.55C751.223 1648.25 742.818 1663.79 738.562 1671.13C734.305 1678.48 726.751 1690.61 721.75 1698.27C716.856 1705.93 710.259 1715.19 707.28 1718.91C704.3 1722.74 698.236 1728.7 693.873 1732.11C689.511 1735.62 683.02 1739.98 679.509 1741.9C675.998 1743.81 666.422 1748.07 658.229 1751.26C650.036 1754.56 635.885 1759.35 626.84 1761.9C617.796 1764.56 602.475 1768.4 592.792 1770.42C583.11 1772.55 567.575 1775.42 558.212 1776.91C548.848 1778.4 532.569 1780.53 522.035 1781.7C511.502 1782.87 491.392 1784.68 477.347 1785.63C457.556 1787.02 442.447 1787.23 409.782 1786.8C385.097 1786.49 359.667 1785.53 348.07 1784.57C337.217 1783.61 320.512 1781.91 310.829 1780.74C301.147 1779.57 286.357 1777.33 277.845 1775.95C269.333 1774.46 254.756 1771.48 245.393 1769.46C236.029 1767.33 222.197 1763.71 214.536 1761.48C206.876 1759.14 195.384 1755.31 189 1752.97C182.616 1750.52 173.466 1746.58 168.784 1744.35C164.102 1742 157.399 1738.07 153.888 1735.51C150.377 1733.07 144.099 1727.43 140.056 1723.17C135.906 1718.81 128.458 1709.12 123.457 1701.46C118.35 1693.8 110.37 1680.92 105.582 1672.73C100.794 1664.54 91.7496 1647.72 85.5783 1635.48Z" fill="#0063A6"/>
<path d="M88.4521 661.266C88.3457 643.388 88.3457 628.065 88.3457 627.213C88.3457 626.256 88.7713 626.043 89.3033 626.681C89.7289 627.213 91.2185 630.406 92.3889 633.598C93.6658 636.791 100.263 654.987 107.072 674.036C113.988 693.084 124.735 724.156 131.119 743.204C137.397 762.253 146.228 790.346 150.59 805.669C155.059 821.099 161.762 846.213 165.486 861.537C169.317 876.967 173.36 894.525 174.531 900.697C175.701 906.869 177.616 918.787 178.787 927.3C179.957 935.813 181.659 951.137 182.617 961.353C183.575 971.568 184.532 994.873 184.958 1012.96C185.277 1032.54 185.064 1056.59 184.319 1072.02C183.681 1086.39 182.404 1106.5 181.553 1116.72C180.702 1126.93 178.68 1146.09 177.191 1159.28C175.701 1172.48 172.828 1194.72 170.806 1208.76C168.785 1222.81 165.38 1244.09 163.358 1256.12C161.337 1268.14 158.89 1280.27 157.826 1283.15C156.868 1286.02 154.634 1289.75 153.038 1291.45C150.91 1293.58 148.888 1294.43 146.334 1294.43C144.313 1294.43 141.44 1293.79 139.844 1292.94C138.141 1292.19 133.034 1286.66 128.352 1280.7C123.671 1274.85 118.032 1266.97 115.797 1263.25C113.563 1259.63 110.796 1253.99 109.626 1250.8C108.349 1247.61 106.434 1240.69 105.37 1235.37C103.774 1227.71 102.923 1214.4 101.22 1168.86C100.05 1137.57 99.0922 1109.91 99.0922 1107.35C99.0922 1104.8 98.6666 1103.1 98.0282 1103.42C97.4962 1103.73 96.9642 1103.42 96.9642 1102.88C96.9642 1102.35 97.3898 1101.71 97.9218 1101.5C98.5602 1101.39 98.3474 1084.05 97.4962 1057.66C96.645 1033.71 95.2618 988.595 94.4106 957.628C93.453 926.662 92.1761 879.946 91.5377 853.875C90.8993 827.803 90.3673 787.579 90.0481 722.56L98.0282 720.113C105.476 717.878 106.115 717.559 106.859 714.26C107.285 712.344 107.604 708.726 107.604 706.279C107.604 703.725 106.647 699.043 105.476 695.85C104.306 692.658 102.816 689.785 102.284 689.466C101.752 689.146 98.4538 690.104 95.1554 691.594C91.7505 693.084 88.8777 694.148 88.7713 694.041C88.6649 693.828 88.5585 679.143 88.4521 661.266Z" fill="#1A1A1A"/>
<path d="M751.437 632.747C752.182 630.619 752.927 628.49 753.139 627.958C753.352 627.533 754.097 627.213 754.735 627.213C755.587 627.213 755.693 636.791 755.161 660.415C754.735 678.718 754.31 693.828 754.203 694.041C754.097 694.148 751.224 693.084 741.754 688.933L740.158 691.275C739.307 692.658 737.818 696.063 736.966 699.043C736.115 701.916 735.37 705.853 735.37 707.556C735.477 709.258 736.009 712.451 736.754 714.473C737.924 717.878 738.562 718.304 753.99 722.667L753.671 749.164C753.565 763.742 752.927 797.901 752.394 825.143C751.756 852.385 750.798 892.29 750.266 913.999C749.628 935.707 748.138 984.977 746.968 1023.6C745.798 1062.23 744.946 1096.07 745.159 1098.84C745.266 1101.61 745.266 1103.95 744.946 1103.95C744.627 1103.95 743.776 1122.78 743.031 1145.66C742.286 1168.65 741.222 1196.85 740.69 1208.23C739.946 1224.73 739.094 1231.22 736.966 1239.62C735.477 1245.48 732.604 1253.67 730.689 1257.72C728.667 1261.76 723.028 1270.48 718.027 1276.87C713.026 1283.25 707.919 1289.64 706.536 1290.92C705.152 1292.3 702.599 1293.79 700.79 1294.32C698.662 1294.96 696.534 1294.85 694.406 1294C692.597 1293.26 690.15 1291.24 688.767 1289.53C687.383 1287.83 685.575 1284 684.83 1281.13C683.979 1278.15 681.425 1264.31 679.084 1250.27C676.743 1236.22 673.339 1214.62 671.636 1202.38C669.827 1190.14 667.167 1169.29 665.784 1156.09C664.294 1142.89 662.379 1122.78 661.422 1111.4C660.57 1100.01 659.294 1077.66 658.655 1061.91C658.017 1046.16 657.804 1023.07 658.23 1010.84C658.549 998.598 659.294 981.571 659.932 973.058C660.464 964.545 661.634 951.137 662.592 943.262C663.443 935.388 665.358 921.448 666.848 912.402C668.231 903.357 672.807 882.287 676.956 865.58C680.999 848.873 687.383 824.505 691.214 811.309C694.938 798.114 701.322 776.831 705.472 763.955C709.515 751.079 717.495 727.349 723.134 711.28C728.773 695.212 736.754 672.971 740.903 661.798C744.946 650.624 748.245 640.515 748.245 639.132C748.138 637.855 748.67 636.791 749.202 636.791C749.841 636.791 750.799 634.982 751.437 632.747Z" fill="#1A1A1A"/>
<path d="M360.305 542.083C371.477 541.445 384.139 540.806 388.502 540.593C392.864 540.38 412.974 540.38 433.19 540.593C453.406 540.806 477.134 541.445 485.859 542.083C494.583 542.721 511.395 544.211 523.099 545.382C534.803 546.552 552.998 548.681 563.531 550.17C574.065 551.66 591.728 554.533 602.9 556.555C614.072 558.577 632.905 562.408 644.928 565.068C656.951 567.729 670.145 571.24 674.188 572.837C678.232 574.326 684.828 577.944 688.872 580.711C692.809 583.478 698.022 588.267 700.469 591.246C702.81 594.332 706.321 599.972 708.13 603.803C710.79 609.549 711.429 612.423 711.748 620.297C712.28 629.555 711.961 630.726 705.789 651.689C702.278 663.714 698.661 676.164 697.703 679.357C696.745 682.549 695.681 685.848 695.256 686.593C694.511 687.657 693.341 687.657 689.085 686.274C686.105 685.422 682.381 684.145 680.572 683.613C678.764 683.081 676.21 682.336 674.72 681.911C673.231 681.591 671.528 681.272 670.996 681.059C670.465 680.953 667.275 679.996 664.084 679.039L664.08 679.038C660.888 678.08 657.058 677.122 655.568 676.803C654.079 676.484 650.993 675.739 648.652 675.207C646.311 674.568 642.694 673.823 640.672 673.504C638.65 673.185 635.778 672.546 634.288 672.014C632.798 671.482 629.926 670.737 627.904 670.418C625.882 670.099 623.009 669.567 621.52 669.247C620.03 668.822 617.902 668.396 616.732 668.183C615.561 668.077 607.901 666.694 599.708 665.097C591.515 663.608 578.853 661.373 571.511 660.202C564.17 659.032 550.338 657.116 540.655 655.946C530.973 654.775 514.906 653.073 505.011 652.221C495.115 651.37 472.771 650.093 455.534 649.348C431.488 648.39 416.911 648.39 393.29 649.348C376.265 650.093 354.028 651.37 343.813 652.221C333.599 653.179 317.532 654.775 308.169 655.946C298.805 657.116 283.484 659.351 274.12 660.734C264.757 662.224 255.926 663.608 254.436 663.927C252.947 664.246 245.818 665.629 238.476 667.119C231.134 668.609 224.006 669.992 222.516 670.312C221.026 670.631 219.111 671.057 218.26 671.376C217.409 671.589 215.493 672.014 214.004 672.333C212.514 672.546 206.556 674.036 200.704 675.419C194.852 676.909 188.893 678.399 187.404 678.718C185.914 679.038 181.871 679.995 178.36 680.953C174.848 681.804 170.805 682.868 169.315 683.188C167.826 683.507 165.804 684.252 164.74 684.784C163.783 685.316 162.931 685.529 162.931 685.21C162.931 684.89 161.335 685.316 159.527 686.167C157.611 686.912 154.1 687.87 147.503 689.04L139.842 662.65C135.586 648.178 131.543 633.386 130.905 629.874C129.947 625.086 129.947 621.787 130.798 616.573C131.543 612.742 133.671 606.251 135.693 602.207C137.608 598.057 141.119 592.63 143.354 590.076C145.694 587.522 150.589 583.159 154.419 580.498C158.25 577.838 164.634 574.326 168.783 572.837C172.933 571.24 186.02 567.729 198.044 565.068C210.067 562.408 229.219 558.577 240.604 556.555C251.989 554.427 269.758 551.554 279.973 550.064C290.187 548.681 307.956 546.446 319.341 545.382C330.726 544.211 349.133 542.721 360.305 542.083Z" fill="#4C5C66"/>
<path d="M700.257 691.594C700.789 691.062 700.895 689.785 700.469 688.934C700.044 687.763 700.363 687.87 701.64 689.147C702.597 690.211 704.193 691.062 705.045 691.062C705.896 691.062 706.854 691.594 707.173 692.126C707.492 692.659 702.278 711.707 695.575 734.373C688.872 757.145 680.892 783.536 677.912 793.22C674.933 802.903 670.571 816.524 668.336 823.547C665.57 831.848 663.229 837.275 661.42 838.977C659.931 840.467 658.441 841.212 658.015 840.787C657.483 840.254 659.505 830.677 662.378 819.504C665.251 808.224 668.23 796.625 669.081 793.752C669.932 790.772 671.316 785.983 672.167 783.11C673.018 780.131 674.188 775.874 674.827 773.533C675.465 771.192 676.423 768.106 676.848 766.616C677.274 765.126 678.232 762.04 678.87 759.699C679.508 757.358 681.53 750.441 683.339 744.269C685.148 738.097 689.51 724.051 693.021 712.877C696.533 701.704 699.831 692.126 700.257 691.594Z" fill="#4C5C66"/>
<path d="M157.399 764.701C139.098 704.79 136.012 693.936 137.395 693.191C138.246 692.552 139.63 692.126 140.374 692.126C141.013 692.126 142.29 693.723 143.141 695.532C143.992 697.447 147.716 708.833 151.546 720.858C155.377 732.883 161.442 752.995 165.059 765.552C168.677 778.109 174.529 799.392 177.934 812.906C181.339 826.314 184.212 838.126 184.212 838.977C184.212 840.148 183.467 839.829 181.658 837.913C179.53 835.785 174.423 820.142 157.399 764.701Z" fill="#4C5C66"/>
<path d="M95.3667 818.227C95.1539 808.862 94.6219 784.281 94.1963 763.637C93.6643 736.395 93.8771 726.179 94.7283 726.179C95.3667 726.179 98.6651 727.456 102.07 728.946C105.368 730.435 108.241 731.712 108.454 731.819C108.56 731.925 113.136 815.141 118.669 916.66C124.095 1018.18 128.564 1101.39 128.457 1101.61C128.457 1101.71 123.563 1099.37 117.711 1096.29C111.859 1093.2 106.22 1090.11 105.262 1089.58C103.772 1088.73 103.347 1086.07 102.921 1075.22C102.602 1067.87 102.07 1054.25 101.751 1044.89C101.538 1035.52 101.006 1019.67 100.687 1009.77C100.368 999.875 99.942 984.445 99.6227 975.719C99.3035 966.887 98.8779 950.712 98.5587 939.539C98.2395 928.365 97.8139 911.658 97.4947 902.294C97.1755 892.929 96.7499 873.988 96.4307 860.26C96.1115 846.533 95.5795 827.591 95.3667 818.227Z" fill="#4C5C66"/>
<path d="M733.773 732.138L740.689 729.158C744.519 727.562 747.924 726.179 748.456 726.179C748.882 726.179 749.52 727.243 749.839 728.52C750.159 729.903 750.159 733.309 749.839 736.288C749.52 739.161 748.988 759.274 748.669 780.982C748.35 802.584 747.818 827.059 747.605 835.253C747.392 843.447 746.86 861.431 746.541 875.158C746.222 888.886 745.69 908.253 745.477 918.256C745.158 928.152 744.732 944.008 744.413 953.372C744.094 962.737 743.668 979.231 743.349 990.085C743.03 1000.94 742.498 1015.31 742.285 1022.01C742.072 1028.71 741.54 1045.53 741.115 1059.25C740.689 1072.98 740.051 1085.43 739.731 1086.82C739.306 1088.41 737.178 1090.43 733.773 1092.24C730.9 1093.84 725.261 1096.82 714.089 1102.88L714.621 1092.99C714.94 1087.67 719.302 1007.11 724.197 913.999C729.091 820.887 733.347 741.928 733.773 732.138Z" fill="#4C5C66"/>
<path d="M104.943 1136.94C104.517 1125.55 104.092 1112.99 103.985 1108.95L103.772 1101.82L129.415 1115.44L129.734 1122.25C129.947 1125.87 131.862 1163.65 134.203 1206.11C136.438 1248.56 138.246 1283.36 138.14 1283.57C138.034 1283.68 135.586 1280.81 132.607 1277.19C129.734 1273.57 125.478 1267.93 123.137 1264.63C120.903 1261.44 117.711 1255.91 116.115 1252.4C114.412 1248.88 112.391 1243.14 111.433 1239.63C110.582 1236.11 109.305 1229.84 108.773 1225.79C108.241 1221.75 107.496 1209.3 107.071 1198.12C106.771 1187.62 106.282 1174.95 106.048 1168.87L106.007 1167.8C105.794 1162.26 105.262 1148.32 104.943 1136.94Z" fill="#4C5C66"/>
<path d="M712.599 1115.97L725.899 1108.95C733.135 1105.01 739.199 1101.82 739.412 1101.82C739.625 1101.82 739.519 1109.8 739.093 1119.59C738.774 1129.38 738.242 1143.11 738.029 1150.13C737.71 1157.15 737.284 1170.88 736.965 1180.46C736.646 1190.14 736.114 1203.55 735.795 1210.26C735.475 1217.07 734.837 1225.37 734.305 1228.88C733.773 1232.39 732.496 1237.92 731.539 1241.12C730.581 1244.41 728.134 1250.37 726.006 1254.42C723.984 1258.57 720.366 1264.53 717.919 1267.72C715.472 1271.02 711.535 1276.13 708.981 1279.21C705.257 1283.79 704.513 1284.43 704.513 1282.4C704.513 1281.13 706.428 1244.84 708.769 1201.74C711.11 1158.75 712.918 1121.83 712.599 1115.97Z" fill="#4C5C66"/>
<path d="M200.17 1438.41L200.172 1438.41L201.129 1432.87L204.641 1433.94C206.556 1434.58 209.854 1435.43 211.876 1435.96C213.897 1436.38 217.302 1437.13 219.324 1437.45C221.346 1437.77 223.793 1438.3 224.644 1438.62C225.495 1438.83 227.41 1439.36 228.9 1439.68C230.39 1440.11 232.73 1440.53 234.22 1440.85C235.71 1441.17 241.881 1442.34 248.052 1443.51C254.223 1444.68 260.608 1445.86 262.416 1446.17C264.119 1446.39 271.141 1447.56 277.844 1448.73C284.548 1449.79 297.741 1451.71 307.105 1452.88C316.468 1454.05 331.577 1455.75 340.621 1456.6C349.665 1457.45 367.647 1458.73 380.521 1459.37C395.098 1460.22 417.549 1460.43 440.106 1460.01C460.003 1459.69 485.114 1458.62 495.967 1457.77C506.82 1456.82 523.524 1455.11 533.207 1453.94C542.889 1452.77 557.254 1450.86 565.127 1449.69C573.001 1448.41 580.449 1447.35 581.619 1447.13C582.79 1446.92 585.663 1446.39 588.004 1445.96C590.344 1445.54 593.217 1445 594.388 1444.79C595.558 1444.47 600.346 1443.62 605.028 1442.66C609.709 1441.81 613.965 1440.96 614.604 1440.75C615.136 1440.64 617.583 1440.11 619.924 1439.68C622.265 1439.26 625.563 1438.51 627.372 1437.98C629.074 1437.45 631.947 1436.81 633.756 1436.49C635.458 1436.17 638.225 1435.75 639.821 1435.43C641.523 1435.11 642.8 1435.21 642.8 1435.64C642.8 1436.07 645.46 1451.07 648.652 1468.84C651.844 1486.72 654.504 1502.57 654.504 1503.96C654.504 1505.45 653.866 1508.53 653.227 1510.87C652.376 1513.64 649.716 1517.37 645.992 1521.09C640.246 1526.94 639.714 1527.16 622.052 1533.01C612.05 1536.31 597.473 1540.67 589.6 1542.69C581.726 1544.71 570.235 1547.37 564.063 1548.54C557.892 1549.82 547.571 1551.52 541.187 1552.38C534.697 1553.33 524.482 1554.5 518.311 1555.14C512.14 1555.78 477.24 1556.53 440.638 1556.84C399.354 1557.27 364.455 1557.06 348.601 1556.31C334.556 1555.67 317.106 1554.4 309.765 1553.44C302.423 1552.48 290.187 1550.67 282.633 1549.18C274.972 1547.8 262.097 1544.93 253.904 1542.8C245.711 1540.67 231.986 1536.63 223.261 1533.75C214.642 1530.88 205.811 1527.58 203.577 1526.52C201.449 1525.35 198.044 1522.69 196.022 1520.34C194 1518.11 191.66 1514.6 190.808 1512.47C189.957 1510.45 189.212 1506.62 189.212 1503.96C189.212 1501.4 191.447 1486.72 194.213 1471.5C196.977 1456.3 199.635 1441.41 200.17 1438.41Z" fill="#4C5C66"/>
<path d="M27.2701 728.731C29.6109 727.348 35.1438 725.326 39.5062 724.049C44.6134 722.666 49.1887 722.134 52.2743 722.453C54.9343 722.772 58.1264 723.73 59.4032 724.581C60.7864 725.433 62.4888 727.242 63.34 728.519C64.1912 729.902 65.1488 732.669 65.5744 734.691C66.1064 737.457 65.7872 739.054 64.2976 740.863C63.0208 742.459 55.1471 745.971 39.8254 751.717C27.3765 756.399 16.4172 760.23 15.566 760.23C14.7148 760.23 13.4379 759.166 12.7995 757.889C12.0547 756.399 11.9483 753.739 12.3739 751.185C12.7995 748.844 14.0763 744.8 15.2468 742.14C16.3108 739.479 18.5452 735.968 20.1412 734.371C21.7372 732.669 24.9293 730.221 27.2701 728.731Z" fill="#BA002C"/>
<path d="M780.377 728.306C781.76 726.178 784.313 724.049 786.441 723.304C788.782 722.453 792.4 722.24 796.017 722.559C799.21 722.985 804.21 724.049 807.19 725.113C810.062 726.071 813.893 727.667 815.702 728.519C817.51 729.476 820.915 732.456 823.469 735.329C825.916 738.202 828.789 742.672 829.64 745.332C830.491 747.992 831.023 752.036 830.917 754.271C830.704 756.505 829.853 758.953 829.002 759.485C827.831 760.336 821.66 758.421 805.062 752.355C792.825 747.886 781.653 743.417 780.27 742.565C778.461 741.395 777.929 740.011 777.929 736.5C777.929 733.52 778.674 730.753 780.377 728.306Z" fill="#BA002C"/>
<path d="M684.935 728.625C690.467 707.342 694.936 689.784 694.936 689.465C694.936 689.145 696.107 689.039 697.596 689.145C699.086 689.252 700.256 689.677 700.256 689.997C700.256 690.316 697.703 698.403 694.511 708.087C691.319 717.771 687.063 731.179 685.041 737.883C683.019 744.587 679.827 755.441 677.912 761.826C676.103 768.211 673.656 776.618 672.592 780.448C671.528 784.279 667.591 798.858 664.08 812.905C660.462 826.951 657.377 839.295 657.377 840.359C657.27 841.424 655.993 842.594 654.504 842.913C653.014 843.339 649.716 843.658 647.056 843.552C644.396 843.552 629.287 842.7 613.539 841.743C597.792 840.785 574.277 839.614 561.403 838.976C548.528 838.444 514.799 837.38 486.39 836.741C457.343 836.103 414.569 835.89 388.501 836.209C363.071 836.635 328.385 837.38 311.36 837.912C294.336 838.55 266.353 839.721 249.116 840.679C231.879 841.53 212.195 842.7 205.491 843.126C197.511 843.658 191.872 843.552 189.106 842.807C186.871 842.168 184.85 841.104 184.743 840.572C184.53 840.04 182.934 833.23 181.126 825.674C179.317 818.119 177.614 810.883 177.295 809.712C177.082 808.542 176.125 804.924 175.274 801.731C174.316 798.539 172.401 791.622 171.018 786.301C169.634 780.98 166.974 771.403 165.059 765.018C163.25 758.634 161.122 751.185 160.271 748.524C159.526 745.864 156.441 736.074 153.568 726.709C150.589 717.345 146.971 706.065 145.481 701.702C143.885 697.339 142.715 693.083 142.715 692.338C142.715 691.699 143.672 690.848 144.843 690.529C146.332 690.21 147.29 690.742 148.035 692.338C148.673 693.721 158.037 725.645 168.783 763.422C181.977 809.393 189.106 832.485 190.383 833.442C191.766 834.613 194.958 834.826 204.427 834.294C211.131 833.975 229.857 832.91 245.924 832.059C261.99 831.314 294.124 830.037 359.241 828.122L363.923 825.249C367.54 823.12 369.455 820.779 372.435 815.139C374.669 810.989 378.074 806.413 384.458 801.199L419.996 800.986C453.725 800.667 455.747 800.773 459.79 802.795C462.45 804.179 465.11 806.733 466.919 809.712C468.621 812.373 471.175 816.736 472.771 819.289C474.686 822.269 477.346 824.929 480.006 826.206C483.73 828.122 486.39 828.335 502.031 828.335C511.926 828.335 531.611 828.867 545.975 829.399C560.339 829.931 589.493 831.421 610.879 832.698C632.266 833.868 650.673 834.613 651.844 834.294C653.014 834.081 654.61 832.485 655.355 830.782C656.206 829.186 659.398 819.396 662.59 809.18C665.889 798.964 668.762 789.387 668.974 787.897C669.294 786.408 670.038 784.386 670.57 783.428C671.102 782.364 671.315 781.513 670.996 781.513C670.677 781.513 671.209 779.81 672.06 777.788C672.911 775.766 673.656 773.851 673.656 773.532C673.656 773.212 673.975 771.722 674.294 770.126C674.72 768.424 679.508 749.801 684.935 728.625Z" fill="#262E33"/>
<path d="M214.429 1308.26C215.068 1306.88 217.196 1304.54 219.217 1303.26C221.452 1301.77 224.537 1300.81 226.984 1300.81C229.219 1300.81 239.327 1301.77 249.435 1302.94C259.437 1304.11 278.057 1305.92 290.612 1307.09C303.168 1308.26 320.937 1309.75 329.981 1310.39C339.025 1310.92 357.964 1311.99 372.009 1312.52C386.054 1313.05 408.292 1313.58 421.486 1313.58C434.679 1313.58 457.13 1313.05 471.494 1312.52C485.858 1311.88 507.883 1310.71 520.439 1309.86C532.994 1308.9 554.806 1306.98 568.851 1305.49C582.896 1304.11 600.239 1302.3 607.368 1301.56C619.711 1300.39 620.456 1300.39 623.222 1302.41C624.712 1303.58 626.946 1305.71 628.01 1307.2C629.5 1309.11 632.798 1325.61 640.672 1369.45C646.524 1402.22 651.312 1429.89 651.312 1430.96C651.312 1431.91 650.461 1432.76 649.503 1432.87C648.439 1432.87 646.524 1433.08 645.247 1433.4C643.864 1433.62 642.587 1433.19 642.268 1432.55C642.055 1431.81 636.948 1404.35 631.096 1371.58C625.244 1338.8 619.817 1311.35 619.072 1310.6C618.008 1309.54 612.156 1309.96 589.067 1312.41C573.32 1314.22 551.295 1316.35 540.123 1317.31C528.951 1318.16 512.99 1319.43 504.478 1320.07C495.966 1320.6 467.238 1321.35 440.638 1321.78C410.101 1322.09 382.436 1321.88 365.625 1321.14C351.048 1320.5 329.449 1319.22 317.745 1318.26C306.04 1317.41 286.888 1315.71 275.184 1314.54C263.48 1313.37 247.945 1311.77 240.604 1310.92C233.262 1309.96 226.452 1309.54 225.495 1309.86C224.431 1310.18 223.367 1311.24 223.048 1312.3C222.728 1313.26 217.728 1340.72 211.876 1373.17C206.023 1405.63 201.129 1432.34 201.023 1432.55C200.81 1432.66 198.682 1432.34 196.235 1431.7C192.298 1430.74 191.766 1430.32 192.191 1428.3C192.511 1426.91 197.299 1399.99 202.938 1368.38C208.577 1336.78 213.684 1309.75 214.429 1308.26Z" fill="#262E33"/>
<path d="M203.364 32.3578C203.364 31.8257 204.641 31.0808 206.344 30.868C207.94 30.7616 210.493 30.4424 212.196 30.3359C213.898 30.3359 215.069 30.7616 215.069 31.6129C214.962 32.2514 209.217 41.2966 202.088 51.5123C194.959 61.728 184.532 76.3067 178.892 83.9685C173.147 91.6303 163.89 103.549 158.25 110.572C152.505 117.595 141.971 130.046 134.842 138.24C127.607 146.433 113.136 162.289 102.709 173.356C91.1114 185.594 82.0673 194.32 79.6201 195.49C77.4921 196.448 74.7256 197.086 73.5552 196.767C72.3848 196.448 70.576 194.958 69.6184 193.362C68.1288 191.021 67.8096 188.573 68.0224 181.337C68.1288 176.336 68.448 171.334 68.6608 170.164C68.8736 168.993 69.2992 166.226 69.7248 164.098C70.044 161.863 70.8952 160.054 71.4272 160.054C71.9592 160.054 72.172 160.906 71.7464 161.97C71.4272 162.928 70.8952 168.78 70.6824 174.952C70.4696 181.763 70.6824 186.658 71.4272 187.509C72.2784 188.467 73.1296 188.36 75.7896 186.977C77.5985 185.913 80.7905 183.146 82.8121 180.805C84.9401 178.464 90.6858 172.186 95.6866 166.971C100.687 161.757 107.923 153.989 111.86 149.945C115.796 145.901 124.628 136.005 131.544 128.13C138.46 120.256 144.844 112.594 145.802 111.104C146.759 109.721 148.249 107.805 149.1 106.847C149.951 105.996 152.186 103.336 153.888 100.995C155.697 98.6536 157.612 96.3125 158.25 95.674C158.995 95.0355 164.209 88.4379 169.955 80.7761C175.594 73.2207 180.807 65.5589 181.446 63.9627C182.084 62.3665 183.042 61.4088 183.467 61.8344C183.893 62.2601 184.212 61.8344 184.212 60.8767C184.212 59.8126 184.532 58.9612 185.064 58.9612C185.489 58.9612 189.745 53.2149 194.64 46.1916C199.428 39.1683 203.364 32.9963 203.364 32.3578Z" fill="#8999A1"/>
<path d="M350.729 496.855C362.965 496.003 376.904 495.152 381.585 494.939C386.267 494.726 402.546 494.513 417.762 494.407C432.977 494.301 455.002 494.726 466.706 495.258C478.41 495.897 496.605 497.067 507.139 497.919C517.672 498.876 537.25 501.005 550.763 502.707C564.276 504.516 584.811 507.602 596.515 509.731C608.22 511.752 628.542 515.903 641.736 518.882C654.93 521.862 670.464 525.693 676.316 527.395C682.168 529.098 690.042 532.184 693.872 534.206C697.703 536.121 703.874 540.378 707.705 543.464C711.535 546.656 716.749 552.083 719.409 555.701C722.069 559.319 724.41 562.299 724.729 562.299C725.048 562.299 725.367 562.938 725.474 563.576C725.58 564.321 727.282 569.216 729.198 574.537C732.283 583.05 732.602 585.391 732.709 595.819C732.709 602.204 732.39 608.802 731.858 610.398C731.432 612.101 730.581 613.378 730.049 613.378C729.517 613.378 728.985 610.824 728.985 607.738C728.985 604.758 728.24 599.544 727.389 596.351C726.538 593.159 724.409 587.626 722.707 584.114C720.898 580.602 717.281 574.962 714.621 571.557C711.961 568.258 706.853 563.257 703.129 560.596C699.512 557.936 693.766 554.318 690.361 552.615C687.063 550.913 680.359 548.359 675.571 546.975C670.677 545.592 658.122 542.506 647.588 540.165C637.054 537.717 620.775 534.419 611.412 532.61C602.048 530.907 586.195 528.247 576.299 526.757C566.404 525.267 550.018 523.139 540.123 521.968C530.228 520.798 511.927 518.989 499.691 517.924C481.922 516.435 465.855 516.115 421.486 516.115C377.223 516.115 361.156 516.435 343.813 517.924C331.79 518.989 311.68 521.01 299.125 522.5C286.569 523.99 266.459 526.863 254.436 528.779C242.413 530.801 223.048 534.419 211.344 536.76C199.64 539.207 183.573 542.825 175.699 544.847C167.826 546.869 158.037 550.061 153.887 552.083C149.738 553.999 143.566 557.723 140.055 560.384C136.544 563.044 131.756 567.513 129.415 570.386C127.074 573.26 123.563 578.261 121.648 581.454C119.732 584.646 117.285 590.179 116.221 593.691C115.157 597.203 113.88 603.375 113.455 607.525C112.816 613.697 112.497 614.655 111.54 612.846C110.901 611.675 110.156 605.929 109.944 600.076C109.624 592.84 110.05 587.2 111.114 582.518C111.965 578.687 113.987 572.728 115.583 569.216C117.072 565.704 120.584 559.745 123.35 555.914C126.116 552.19 131.437 546.55 135.267 543.357C139.097 540.271 146.013 535.802 150.695 533.461C156.37 530.694 165.414 527.715 177.827 524.522C188.042 521.968 204.64 518.137 214.536 516.009C224.431 513.881 243.583 510.263 257.096 508.028C270.609 505.793 283.909 503.665 286.888 503.239C289.761 502.92 300.401 501.643 310.297 500.473C320.192 499.408 338.493 497.706 350.729 496.855Z" fill="black"/>
<path d="M733.987 457.481C733.774 460.992 733.668 458.545 733.668 452.16C733.668 445.669 733.774 442.796 733.987 445.775C734.2 448.648 734.2 453.969 733.987 457.481Z" fill="#004673"/>
<path d="M109.413 496.854C109.307 502.174 109.094 498.024 109.094 487.809C109.094 477.593 109.307 473.23 109.413 478.231C109.626 483.233 109.626 491.533 109.413 496.854Z" fill="#004673"/>
<path d="M733.987 526.118C733.774 529.31 733.668 526.969 733.668 520.797C733.668 514.625 733.774 511.965 733.987 514.944C734.2 517.817 734.2 522.925 733.987 526.118Z" fill="#004673"/>
<path d="M716.748 645.835C720.472 636.471 724.303 626.894 725.367 624.553C726.431 622.105 727.388 620.935 727.601 621.892C727.814 622.744 725.58 632.853 722.6 644.239C719.621 655.625 716.855 665.203 716.429 665.522C716.004 665.841 715.471 666.799 715.259 667.65C715.046 668.501 713.344 674.248 711.428 680.42C708.981 688.294 707.598 691.487 706.534 691.168C705.683 691.061 703.98 690.742 702.81 690.636C700.575 690.529 700.682 690.103 705.257 676.695C707.917 669.14 713.131 655.2 716.748 645.835Z" fill="#607480"/>
<path d="M115.37 627.213C115.05 626.362 114.625 624.765 114.518 623.701V623.808C114.412 622.744 114.731 621.892 115.263 621.892C115.689 621.892 119.413 630.405 123.456 640.834C127.393 651.156 133.351 666.692 136.437 675.312C139.629 683.931 141.97 691.274 141.651 691.487C141.331 691.7 139.948 692.232 138.459 692.657C135.799 693.296 135.692 693.083 129.415 672.758C125.903 661.478 122.605 651.688 121.967 651.05C121.435 650.411 119.838 645.197 118.455 639.344C117.072 633.598 115.689 628.064 115.37 627.213Z" fill="#607480"/>
<path d="M384.246 649.985C395.631 649.559 405.1 649.133 405.313 649.027C405.42 648.921 417.23 648.921 431.382 649.133C445.533 649.346 462.876 649.772 469.899 650.091C476.921 650.41 485.753 650.942 489.583 651.155C493.413 651.474 499.372 652.007 502.883 652.326C506.394 652.539 511.927 653.071 515.119 653.39C518.311 653.709 522.674 654.135 524.695 654.348C526.717 654.56 531.292 655.093 534.803 655.412C538.315 655.731 542.358 656.263 543.847 656.476C545.337 656.689 548.423 657.221 550.764 657.54C553.104 657.753 556.722 658.285 558.744 658.604C560.765 658.923 564.383 659.349 566.724 659.668C569.065 659.988 572.363 660.52 574.172 660.839C575.981 661.158 578.747 661.584 580.556 661.903C582.365 662.222 585.131 662.648 586.94 662.967C588.749 663.286 591.302 663.712 592.792 663.925C594.282 664.244 596.622 664.67 598.112 664.989C599.602 665.202 601.942 665.734 603.432 666.053C604.922 666.266 607.794 666.904 609.816 667.224C611.838 667.543 614.711 668.075 616.2 668.288C617.69 668.394 619.818 668.82 620.988 669.139C622.159 669.352 623.116 669.671 623.116 669.778C623.116 669.884 624.074 670.203 625.244 670.416C626.415 670.735 628.649 670.948 630.352 670.842C631.948 670.842 633.224 671.161 633.224 671.693C633.224 672.119 633.863 672.544 634.608 672.651C635.246 672.757 637.161 672.97 638.757 673.183C640.247 673.396 641.949 673.821 642.481 674.247C642.907 674.673 643.971 674.779 644.716 674.46C645.354 674.247 646.205 674.566 646.524 675.098C646.844 675.63 648.014 675.95 649.185 675.63C650.355 675.311 651.312 675.418 651.312 675.95C651.312 676.375 653.121 676.801 655.356 676.907C657.484 677.014 659.399 677.652 659.612 678.291C659.718 678.823 660.569 679.142 661.421 678.823C662.272 678.504 663.229 678.823 663.549 679.355C663.868 679.887 664.613 680.206 665.145 679.887C665.783 679.568 666.847 679.781 667.592 680.313C668.23 680.738 669.613 681.27 670.465 681.27C671.316 681.27 673.444 681.59 675.253 682.015C677.062 682.334 678.977 683.186 679.509 683.718C680.147 684.25 681.743 684.676 683.233 684.676C684.722 684.676 686.425 685.101 686.957 685.633C687.595 686.272 689.936 686.91 692.277 687.229C694.618 687.442 696.746 687.762 697.065 687.762C697.384 687.868 697.065 688.294 696.32 688.719C695.682 689.145 690.575 706.916 685.042 728.305C679.509 749.694 674.721 768.317 674.402 769.807C673.976 771.296 673.763 772.786 673.657 773.318C673.657 773.744 672.912 775.766 672.061 777.788C671.209 779.809 670.677 781.512 670.997 781.512C671.316 781.512 671.103 782.363 670.571 783.428C670.039 784.385 669.294 786.407 668.975 787.897C668.762 789.387 665.889 798.964 662.591 809.18C659.399 819.395 656.207 829.185 655.356 830.782C654.611 832.484 653.015 834.081 651.845 834.293C650.674 834.613 632.267 833.868 610.88 832.697C589.493 831.42 560.34 829.93 545.975 829.398C531.611 828.866 511.927 828.334 502.138 828.334C486.391 828.334 483.731 828.121 480.007 826.206C477.347 824.823 474.687 822.269 472.878 819.289C471.176 816.629 468.622 812.266 467.026 809.712C465.111 806.732 462.451 804.072 459.791 802.795C455.747 800.773 453.726 800.667 384.459 801.199L380.309 804.497C378.075 806.413 374.67 810.989 372.435 815.139C369.456 820.779 367.541 823.12 359.242 828.121L317.213 829.398C294.124 830.037 261.991 831.314 245.925 832.059C229.858 832.91 211.131 833.974 204.428 834.293C194.958 834.825 191.766 834.613 190.383 833.442C189.106 832.484 181.978 809.393 168.784 763.422C158.037 725.645 148.674 693.721 148.036 692.337C147.326 690.777 147.326 689.819 148.036 689.464C148.674 689.145 150.908 688.719 153.143 688.4C155.271 688.081 157.505 687.336 158.144 686.804C158.676 686.165 160.485 685.74 162.081 685.74C163.677 685.74 165.273 685.42 165.485 684.888C165.698 684.463 167.507 683.824 169.422 683.292C171.444 682.867 173.785 682.334 174.636 682.122C175.487 681.909 176.977 681.483 177.828 681.164C178.679 680.845 185.702 679.142 193.256 677.227C200.917 675.418 208.046 673.715 209.216 673.502C210.387 673.289 211.557 673.076 211.876 672.97C212.195 672.864 212.727 672.757 213.259 672.864C213.685 672.864 215.175 672.438 216.664 671.906C218.154 671.374 220.708 670.629 222.516 670.31C224.325 669.99 226.985 669.565 228.688 669.246C230.284 668.926 232.731 668.501 234.22 668.181C235.71 667.862 238.051 667.437 239.54 667.117C241.03 666.798 243.371 666.372 244.861 666.053C246.35 665.734 248.265 665.308 249.117 664.989C249.968 664.67 252.415 664.244 254.437 664.031C256.458 663.712 262.204 662.861 267.205 661.903C272.206 661.052 278.696 659.988 281.569 659.668C284.548 659.349 288.591 658.817 290.613 658.498C292.635 658.179 295.507 657.753 296.997 657.434C298.487 657.221 302.317 656.795 305.509 656.476C308.701 656.05 312.532 655.625 314.021 655.412C315.511 655.199 319.554 654.667 323.065 654.348C326.577 654.028 331.152 653.496 333.173 653.283C335.195 653.071 340.941 652.539 345.942 652.219C350.942 651.794 356.901 651.368 359.242 651.155C361.582 650.836 372.861 650.304 384.246 649.985Z" fill="#343F45"/>
<path d="M111.221 772.999C110.902 765.124 110.263 752.568 109.944 745.119L109.199 731.71L112.923 733.307C114.945 734.158 118.35 735.541 120.371 736.393C124.095 737.882 124.095 737.882 132.288 763.103C136.863 777.043 142.928 796.836 145.908 807.051C148.887 817.267 154.632 838.55 158.676 854.406C162.719 870.261 167.188 888.884 168.677 895.907C170.167 902.93 172.295 915.381 173.465 923.574C174.636 931.768 176.338 946.134 177.296 955.499C178.147 964.863 179.424 985.188 179.956 1000.72C180.807 1020.3 180.807 1038.18 179.956 1059.25C179.318 1075.96 178.147 1097.99 177.296 1108.2C176.445 1118.42 175.593 1126.93 175.487 1127.14C175.274 1127.25 170.38 1124.91 164.528 1121.72C158.676 1118.52 148.674 1113.2 142.184 1109.8C135.799 1106.39 130.16 1103.31 129.735 1102.99C129.415 1102.67 128.777 1097.56 128.458 1091.71C128.139 1085.86 127.287 1072.02 126.755 1060.85C126.117 1049.67 125.479 1036.59 125.159 1031.58C124.84 1026.58 124.202 1012.96 123.563 1001.26C122.925 989.551 122.287 976.356 121.967 971.993C121.755 967.63 121.223 959.01 120.903 952.838C120.584 946.666 120.052 936.876 119.839 931.023C119.52 925.171 118.988 917.083 118.775 912.933C118.563 908.783 118.031 899.525 117.711 892.182C117.392 884.84 116.966 875.795 116.647 871.964C116.328 868.133 115.902 859.513 115.583 852.809C115.264 846.105 114.732 836.954 114.519 832.591C114.306 828.228 113.774 819.076 113.455 812.372C113.136 805.668 112.604 797.261 112.391 793.75C112.178 790.238 111.646 780.874 111.221 772.999Z" fill="#343F45"/>
<path d="M719.622 738.308C720.26 737.776 723.665 735.967 727.283 734.477C730.901 732.881 733.773 731.604 733.88 731.498C733.88 731.498 733.561 735.861 733.135 741.288C732.816 746.715 732.177 758.314 731.752 767.04C731.326 775.872 730.794 785.662 730.688 788.855L730.639 789.615C730.402 793.278 729.921 800.71 729.624 806.945C729.304 813.755 728.772 823.333 728.453 828.228C728.24 833.229 727.708 842.062 727.496 847.914C727.176 853.767 726.644 862.174 726.432 866.537C726.112 871.006 725.58 880.264 725.261 887.287C724.942 894.311 724.516 903.462 724.197 907.506C723.984 911.656 723.24 924.532 722.708 936.238L722.582 938.55C721.974 949.695 721.304 961.99 721.005 966.566C720.792 971.567 720.048 984.762 719.516 995.829C718.877 1007 718.132 1020.62 717.813 1026.16C717.6 1031.8 716.856 1044.67 716.323 1054.89C715.792 1065.21 714.94 1080 714.621 1087.88C714.195 1095.86 713.664 1102.56 713.238 1102.99C712.812 1103.41 709.62 1105.22 706.109 1107.14C702.598 1108.95 692.703 1114.27 684.084 1118.95C675.466 1123.53 668.23 1127.14 668.017 1127.04C667.698 1126.93 667.06 1120.33 666.315 1112.35C665.677 1104.48 664.719 1089.69 664.187 1079.36C663.549 1069.15 663.123 1047.01 663.123 1030.2C663.123 1013.39 663.549 991.36 664.187 981.251C664.825 971.141 666.209 954.222 667.379 943.687C668.656 933.152 670.571 918.786 671.742 911.763C672.912 904.739 675.998 889.948 678.658 878.774C681.211 867.707 685.786 849.511 688.766 838.337C691.745 827.27 696.639 809.499 699.831 798.964C702.917 788.429 708.45 770.764 712.068 759.591C715.685 748.524 719.09 738.947 719.622 738.308Z" fill="#343F45"/>
<path d="M131.65 1151.19C131.331 1147.15 130.799 1137.68 130.479 1130.23C129.947 1120.44 130.054 1116.61 130.905 1116.61C131.543 1116.61 141.545 1121.72 153.143 1128C164.741 1134.27 174.317 1139.38 174.423 1139.38C174.529 1139.49 173.465 1150.02 171.976 1162.9C170.486 1175.78 167.826 1196.21 166.124 1208.12C164.315 1220.15 161.229 1240.05 159.208 1252.29C157.08 1264.63 154.952 1276.34 154.313 1278.36C153.675 1280.49 152.185 1283.47 151.121 1285.06C149.844 1286.98 148.142 1288.04 146.227 1288.04C144.631 1288.04 142.29 1287.19 141.013 1286.13C138.885 1284.42 138.566 1282.83 138.034 1271.44C137.715 1264.42 137.183 1254.63 136.863 1249.63C136.651 1244.73 136.225 1236.54 135.906 1231.54C135.587 1226.64 135.055 1216.74 134.735 1209.72C134.416 1202.7 133.991 1193.87 133.671 1190.03C133.459 1186.31 132.927 1177.69 132.607 1170.88C132.288 1164.18 131.863 1155.34 131.65 1151.19Z" fill="#343F45"/>
<path d="M669.081 1139.28L690.255 1128C701.959 1121.82 711.855 1116.72 712.28 1116.72C712.706 1116.72 712.812 1120.65 712.599 1125.44C712.28 1130.23 711.748 1138.96 711.535 1144.81C711.216 1150.66 710.471 1164.39 709.939 1175.14C709.301 1185.99 708.556 1199.93 708.237 1206C707.918 1212.17 707.492 1221.75 707.173 1227.28C706.96 1232.92 706.428 1240.26 706.215 1243.77C705.896 1247.29 705.364 1257.61 705.045 1266.65C704.619 1278.04 703.875 1283.89 702.917 1285.59C701.853 1287.19 700.363 1287.94 698.129 1287.94C696.427 1287.94 694.192 1287.19 693.235 1286.13C692.277 1285.06 690.787 1282.72 690.043 1280.81C689.191 1278.89 687.17 1269.1 685.467 1258.99C683.658 1248.88 680.786 1231.32 679.083 1219.83C677.381 1208.44 674.401 1187.37 672.699 1173.01C670.89 1158.75 669.401 1145.23 669.081 1139.28Z" fill="#343F45"/>
<path d="M222.516 1313.37C222.41 1312.94 223.261 1311.77 224.325 1310.81C225.815 1309.43 227.304 1309.22 231.028 1309.64C233.688 1310.07 247.095 1311.56 260.821 1313.05C274.653 1314.54 297.635 1316.67 311.893 1317.73C326.257 1318.9 350.198 1320.39 365.094 1321.03C382.437 1321.88 409.782 1322.09 440.638 1321.67C467.345 1321.35 496.073 1320.6 504.479 1319.97C512.991 1319.33 529.058 1318.16 540.123 1317.2C551.296 1316.35 573.321 1314.11 589.068 1312.41C612.263 1309.86 618.115 1309.54 619.179 1310.6C619.924 1311.35 625.244 1338.69 631.096 1371.47C636.948 1404.25 642.268 1431.91 642.8 1432.98C643.51 1434.18 643.51 1434.61 642.8 1434.25C642.268 1434.04 641.098 1434.36 640.14 1435.11C639.289 1435.85 638.225 1436.06 637.8 1435.64C637.374 1435.21 636.416 1435.42 635.672 1436.17C634.82 1436.91 634.288 1437.13 634.288 1436.7C634.288 1436.28 632.799 1436.38 630.883 1437.02C628.968 1437.66 625.989 1438.3 624.18 1438.62C622.478 1438.83 620.031 1439.26 618.86 1439.58C617.69 1439.79 616.732 1440.11 616.732 1440.11C616.732 1440.21 616.094 1440.53 615.136 1440.75C614.285 1440.96 609.497 1441.92 604.496 1442.87C599.602 1443.73 594.282 1444.68 592.792 1444.9C591.409 1445 589.174 1445.43 588.004 1445.85C586.833 1446.28 583.961 1446.7 581.62 1447.02C579.279 1447.24 575.981 1447.66 574.172 1447.98C572.469 1448.3 568.852 1448.83 566.192 1449.26C563.638 1449.68 560.765 1450.11 559.808 1450.22C558.956 1450.43 556.084 1450.85 553.424 1451.17C550.87 1451.49 542.677 1452.56 535.335 1453.41C528.1 1454.37 513.949 1455.75 503.947 1456.6C494.052 1457.56 472.027 1458.73 455.003 1459.47C432.126 1460.33 416.273 1460.33 393.29 1459.37C376.372 1458.73 354.56 1457.45 344.878 1456.6C335.301 1455.75 323.065 1454.47 317.745 1453.94C312.532 1453.3 306.573 1452.56 304.445 1452.34C302.424 1452.03 297.848 1451.39 294.337 1450.85C290.826 1450.32 285.825 1449.58 283.165 1449.26C280.611 1448.94 277.206 1448.41 275.717 1448.09C274.334 1447.88 271.142 1447.34 268.801 1446.92C266.46 1446.6 263.374 1446.17 261.885 1445.96C260.501 1445.85 259.225 1445.64 259.225 1445.53C259.225 1445.43 258.586 1445.11 257.629 1445C256.777 1444.79 254.437 1444.36 252.309 1444.04C250.287 1443.62 247.414 1443.09 245.925 1442.77C244.541 1442.55 241.881 1442.02 240.072 1441.6C238.37 1441.28 235.71 1440.85 234.22 1440.64C232.837 1440.43 230.603 1440 229.432 1439.68C228.262 1439.47 227.304 1439.15 227.304 1439.04C227.304 1439.04 226.134 1438.72 224.644 1438.4C223.261 1438.19 221.24 1437.87 220.282 1437.77C219.324 1437.55 218.154 1437.13 217.622 1436.7C217.09 1436.38 216.132 1436.17 215.387 1436.49C214.643 1436.7 213.791 1436.49 213.472 1435.85C213.259 1435.32 212.621 1435.11 212.195 1435.32C211.77 1435.64 209.11 1435 206.237 1434.04C201.981 1432.45 201.236 1431.81 201.662 1430C201.981 1428.83 206.769 1402.33 212.408 1370.94C217.941 1339.65 222.516 1313.69 222.516 1313.37Z" fill="#343F45"/>
<path d="M745.69 169.632C745.584 173.995 745.371 170.909 745.371 162.715C745.371 154.521 745.477 150.903 745.69 154.734C745.903 158.565 745.903 165.269 745.69 169.632Z" fill="#C2C8CC"/>
<path d="M611.413 56.3039C611.094 43.4278 610.562 30.871 610.349 28.4234C610.03 25.7631 610.349 23.8477 610.881 23.8477C611.519 23.8477 611.945 24.1669 611.945 24.5926C611.945 25.1246 613.434 35.4468 615.243 47.7908C616.946 60.1348 618.542 71.4146 618.648 73.0108C618.755 74.7135 619.18 75.9904 619.712 75.9904C620.138 75.9904 620.457 77.5866 620.457 79.5021C620.457 81.3111 621.84 90.7819 623.649 100.466C625.351 110.149 628.863 128.559 631.523 141.435C634.076 154.311 638.651 175.594 641.737 188.789C644.716 201.984 649.611 222.309 652.484 234.015C655.463 245.72 660.251 264.13 663.124 274.984C666.103 285.838 671.849 306.376 675.998 320.742C680.042 335.108 687.915 361.179 693.342 378.738C698.875 396.296 708.663 426.198 715.154 445.246C721.644 464.294 727.284 480.788 727.709 481.959C728.135 483.236 727.922 483.768 727.39 483.449C726.752 483.13 723.666 478.767 720.367 473.872C717.175 468.977 712.281 461.315 709.621 456.952C706.961 452.589 701.747 443.224 697.917 436.201C694.086 429.178 687.809 416.727 683.978 408.534C680.254 400.34 674.189 386.187 670.465 377.141C666.848 368.096 660.783 351.389 657.059 340.216C653.335 328.936 647.802 310.739 644.929 299.779C641.95 288.712 637.694 271.153 635.353 260.618C633.119 250.083 629.501 231.674 627.479 219.649C625.351 207.624 622.479 189.002 621.095 178.148C619.606 167.293 617.69 150.799 616.839 141.435C615.882 132.07 614.392 114.406 613.541 102.062C612.69 89.7178 611.626 69.1799 611.413 56.3039Z" fill="#4790BF"/>
<path d="M230.497 32.1498L230.497 32.1479C230.816 29.2748 231.561 27.0401 232.2 27.0401C232.732 27.0401 233.157 28.6363 233.157 30.5517C233.157 32.3608 232.625 45.4497 232.093 59.4963C231.455 73.5429 230.497 91.9525 229.965 100.466C229.327 108.979 228.156 124.089 227.199 133.986C226.347 143.989 224.432 161.441 222.943 172.827C221.559 184.213 219.112 201.027 217.623 210.072C216.133 219.117 213.26 234.973 211.239 245.188C209.217 255.404 205.599 271.685 203.152 281.369C200.811 291.053 196.236 307.76 193.044 318.614C189.852 329.468 184.213 346.707 180.489 356.923C176.765 367.139 170.487 382.994 166.657 392.039C162.72 401.085 156.229 415.025 152.292 422.899C148.356 430.774 142.397 442.054 138.992 447.907C135.587 453.759 129.31 464.188 125.054 471.105C120.691 477.915 116.648 483.555 116.116 483.555C115.584 483.555 117.606 476.213 120.798 467.38C123.883 458.442 131.012 437.159 136.651 420.239C142.291 403.319 149.207 381.717 152.186 372.353C155.059 362.988 161.017 342.876 165.38 327.659C169.849 312.442 175.594 292.117 178.254 282.433C180.914 272.75 186.341 251.467 190.49 235.079C194.534 218.691 200.066 195.706 202.726 184C205.386 172.295 209.217 154.311 211.345 144.095C213.473 133.88 216.984 115.151 219.219 102.594C221.453 90.037 223.368 78.97 223.475 78.1187C223.475 77.2674 224.964 67.6901 226.667 56.8359C228.369 45.9842 230.071 34.9197 230.497 32.1498Z" fill="#4790BF"/>
<path d="M314.553 837.912C333.918 837.273 357.113 836.635 366.157 836.422C375.201 836.209 409.994 836.209 443.298 836.528C476.601 836.741 516.927 837.379 532.675 837.912C548.422 838.444 576.299 839.721 594.387 840.572C612.476 841.53 628.968 842.487 630.777 842.7C633.756 843.126 634.181 843.551 633.756 845.573C633.437 846.957 630.564 858.769 627.265 871.964C624.073 885.159 619.392 906.442 616.732 919.318C614.178 932.194 610.88 950.178 609.39 959.223C607.9 968.268 605.453 985.082 603.963 996.468C602.58 1007.85 600.665 1025.84 599.707 1036.37C598.856 1046.91 597.686 1064.57 597.047 1075.75C596.515 1086.92 595.983 1114.91 595.983 1138C595.983 1161.09 596.409 1190.14 597.047 1202.38C597.579 1214.62 598.537 1232.39 599.175 1241.75L599.23 1242.55C599.879 1252.07 601.011 1268.68 601.942 1280.06C602.793 1291.77 603.431 1301.45 603.219 1301.56C603.006 1301.66 594.707 1302.73 584.811 1303.9C574.916 1305.07 555.019 1306.98 540.655 1308.15C526.291 1309.32 506.394 1310.81 496.498 1311.45C486.603 1311.99 461.918 1312.84 441.702 1313.16C419.677 1313.58 392.864 1313.37 374.669 1312.62C357.964 1311.99 334.556 1310.71 322.533 1309.75C310.509 1308.9 293.272 1307.52 284.228 1306.56C275.184 1305.71 261.565 1304.22 253.904 1303.37C246.243 1302.51 239.965 1301.66 239.965 1301.56C239.859 1301.45 240.604 1290.06 241.668 1276.34C242.732 1262.61 244.115 1242.71 244.754 1232.17C245.392 1221.64 246.456 1197.91 247.094 1179.5C247.733 1160.88 247.946 1132.68 247.626 1116.18C247.201 1099.8 246.456 1078.51 245.924 1068.83C245.286 1059.15 244.328 1045.1 243.796 1037.44C243.158 1029.78 241.455 1013.81 239.965 1001.79C238.476 989.764 236.348 974.015 235.177 966.672C234.007 959.33 231.666 945.496 229.857 935.812C228.049 926.129 224.218 907.719 221.345 894.843C218.472 881.967 214.429 865.047 208.684 843.232L213.152 842.7C215.706 842.381 231.56 841.423 248.584 840.572C265.608 839.721 295.188 838.55 314.553 837.912Z" fill="#BA002C"/>
<path d="M482.136 163.249C481.497 155.374 480.646 142.498 480.221 134.837C479.795 127.068 479.795 120.684 480.221 120.684C480.753 120.684 481.497 122.493 482.029 124.621C482.561 126.856 483.519 131.325 484.157 134.517C484.796 137.71 485.753 147.287 486.392 155.8C487.03 164.313 488.945 184.106 490.754 199.962C492.457 215.818 495.649 240.399 497.67 254.765C499.692 269.131 503.097 290.626 505.118 302.651C507.14 314.676 511.183 336.172 514.056 350.537C516.929 364.903 521.398 385.76 524.058 396.827C526.718 407.894 530.548 423.537 532.676 431.412C534.804 439.286 538.528 452.269 540.869 460.144C543.21 468.018 547.04 479.298 549.275 485.151C551.403 491.004 554.063 497.601 554.914 499.73C556.51 503.56 556.51 503.773 554.701 503.241C553.744 503.028 551.296 502.603 549.275 502.496C546.189 502.177 545.338 501.539 543.742 497.921C542.678 495.579 539.38 485.576 536.4 475.574C533.421 465.571 528.101 445.991 524.696 431.944C521.291 417.897 516.716 398.53 514.695 388.846C512.673 379.163 509.055 360.966 506.608 348.409C504.267 335.852 500.437 313.293 498.096 298.395C495.755 283.497 492.457 259.766 490.754 245.72C488.945 231.673 486.605 210.603 485.434 198.898C484.264 187.192 482.774 171.124 482.136 163.249Z" fill="#0063A6"/>
<path d="M359.987 130.261C360.626 127.6 361.69 124.621 362.222 123.557C362.86 122.493 363.605 121.748 363.818 121.961C364.137 122.28 363.818 130.261 363.073 139.944C362.435 149.522 360.839 167.931 359.668 180.807C358.498 193.683 356.37 214.541 354.987 227.097C353.497 239.654 350.411 263.172 348.07 279.24C345.73 295.309 341.899 319.571 339.558 332.979C337.111 346.387 333.281 366.819 330.94 378.205C328.599 389.591 323.598 411.406 319.874 426.623C316.15 441.84 311.681 459.612 309.766 465.996C307.957 472.381 304.765 482.81 302.744 489.088C300.19 497.176 298.488 500.9 296.998 501.645C295.828 502.177 294.87 502.496 294.87 502.177C294.87 501.858 293.168 502.177 291.146 502.709C289.124 503.241 287.422 503.454 287.422 502.922C287.422 502.496 288.699 498.878 290.401 494.728C292.104 490.578 295.934 479.83 298.913 470.785C301.892 461.74 306.148 448.012 308.276 440.457C310.405 432.902 314.448 417.046 317.214 405.34C320.087 393.635 324.343 374.906 326.684 363.839C329.025 352.772 332.855 333.086 335.196 320.209C337.537 307.333 341.154 285.519 343.176 271.791C345.198 258.064 348.177 237.207 349.56 225.501C351.05 213.796 353.178 194.854 354.455 183.468C355.625 172.081 357.008 156.439 357.647 148.883C358.285 141.221 359.349 132.921 359.987 130.261Z" fill="#0063A6"/>
<path d="M203.365 860.259C201.556 853.555 199.854 846.958 199.535 845.574C198.896 843.233 199.109 843.127 209.111 843.765L212.622 857.599C214.537 865.261 218.474 881.968 221.347 894.844C224.22 907.72 228.05 926.13 229.859 935.813C231.668 945.497 234.009 959.331 235.179 966.673C236.349 974.016 238.265 987.637 239.435 997.001C240.712 1006.37 242.308 1021.9 243.159 1031.59C244.01 1041.27 245.393 1058.51 246.032 1069.89C246.777 1081.28 247.415 1111.93 247.415 1138C247.415 1164.07 246.777 1196.1 246.138 1209.3C245.393 1222.49 243.904 1246.86 242.733 1263.57C241.563 1280.27 240.393 1295.7 239.541 1301.88L234.966 1301.24C232.519 1300.81 230.391 1300.49 230.285 1300.39C230.178 1300.39 230.71 1291.87 231.561 1281.66C232.413 1271.44 233.902 1250.37 234.966 1234.84C236.456 1212.81 236.775 1192.16 236.881 1140.66C236.881 1096.39 236.456 1068.94 235.498 1057.12C234.753 1047.44 233.37 1032.12 232.519 1023.07C231.668 1014.03 229.433 996.256 227.731 983.699C225.922 971.143 222.624 950.498 220.283 937.942C217.942 925.385 213.899 905.485 211.239 893.78C208.579 882.074 205.067 866.964 203.365 860.259Z" fill="#0063A6"/>
<path d="M625.352 879.946C627.905 868.773 631.097 856.003 632.268 851.534L634.502 843.233H639.184C641.737 843.233 643.865 843.765 643.865 844.297C643.865 844.829 641.95 853.13 639.503 862.707C637.162 872.178 633.119 889.523 630.565 901.229C627.905 912.934 624.181 931.876 622.16 943.262C620.138 954.648 617.265 972.632 615.776 983.167C614.286 993.702 612.051 1011.69 610.987 1023.07C609.817 1034.46 608.221 1052.66 607.476 1063.51C606.625 1076.28 606.093 1103.73 606.199 1141.19C606.199 1182.91 606.731 1207.27 608.008 1227.92C609.072 1243.67 610.562 1266.44 611.519 1278.47C612.371 1290.49 613.009 1300.39 612.796 1300.49C612.583 1300.6 610.562 1301.03 603.965 1302.09L603.22 1294.75C602.795 1290.81 601.731 1277.4 600.773 1265.16C599.922 1252.93 598.645 1234.94 598.007 1225.26C597.368 1215.58 596.623 1184.29 596.304 1155.56C595.878 1121.72 596.091 1094.8 596.943 1078.94C597.687 1065.43 598.858 1046.06 599.815 1035.84C600.667 1025.63 602.582 1007.86 603.965 996.469C605.455 985.083 607.902 968.269 609.391 959.224C610.881 950.179 613.967 933.153 616.308 921.447C618.648 909.742 622.692 891.119 625.352 879.946Z" fill="#0063A6"/>
<path d="M180.489 65.8778C179.105 67.8997 178.999 67.6869 178.893 63.5367V63.4303C178.893 60.1315 179.318 58.9609 180.489 58.9609C181.446 58.9609 182.085 59.9187 182.085 61.302C182.085 62.6854 181.446 64.7073 180.489 65.8778Z" fill="#DBE2E6"/>
<path d="M139.205 108.869C138.992 99.3982 139.205 98.5469 141.12 98.1212C142.291 97.802 144.099 97.5891 145.057 97.4827C146.653 97.3763 146.972 98.334 146.972 103.442C147.079 108.763 146.547 110.252 143.674 113.87C141.865 116.212 140.163 118.34 139.95 118.659C139.631 118.978 139.311 114.509 139.205 108.869Z" fill="#DBE2E6"/>
<path d="M695.895 123.448L696.002 110.359C696.002 98.7597 696.214 97.3763 697.917 97.3763C698.875 97.3763 700.79 97.5891 702.173 97.9084C704.514 98.4405 704.514 98.6533 704.407 133.025L695.895 123.448Z" fill="#DBE2E6"/>
<path d="M83.7701 149.519C84.0893 149.2 87.3877 148.774 90.899 148.455L97.4958 147.923L98.0278 164.949L83.6637 179.847L83.4509 164.949C83.2381 156.755 83.4509 149.838 83.7701 149.519Z" fill="#DBE2E6"/>
<path d="M745.904 178.783L745.691 163.246L745.478 147.71L749.734 148.136C752.075 148.349 755.48 148.774 760.906 149.519V193.681L745.904 178.783Z" fill="#DBE2E6"/>
<path d="M151.122 769.807C147.078 752.568 138.779 718.941 132.714 695.104C126.649 671.161 122.181 651.688 122.606 651.688C123.138 651.688 125.373 658.285 127.713 666.373C129.948 674.354 142.503 715.642 155.484 758.101C175.807 824.716 179.424 835.677 182.084 838.444C184.638 841.104 185.808 844.19 188.894 857.598C190.916 866.431 194.533 883.35 196.98 895.375C199.321 907.4 202.939 927.299 204.961 939.537C206.982 951.774 210.068 974.866 211.877 990.615C213.579 1006.36 215.707 1028.18 216.665 1039.03C217.516 1049.89 218.686 1067.77 219.325 1078.94C219.857 1090.11 220.389 1113.52 220.389 1131.08C220.389 1148.64 219.857 1171.84 219.325 1182.69C218.686 1193.55 217.516 1211.21 216.558 1222.07C215.707 1232.92 213.26 1255.16 211.238 1271.55C209.11 1287.94 204.854 1316.88 201.769 1335.93C198.576 1354.98 193.044 1385.09 189.532 1402.97C186.021 1420.85 181.127 1444.04 178.786 1454.58C176.339 1465.11 172.402 1480.97 169.848 1489.7C167.295 1498.53 163.464 1509.91 161.336 1515.24C159.208 1520.56 156.548 1526.41 155.378 1528.32C154.314 1530.13 152.398 1532.26 151.228 1532.79C149.419 1533.65 148.781 1533.33 147.185 1530.98C145.695 1528.54 145.376 1525.66 145.482 1513.11C145.482 1504.91 146.44 1491.51 147.398 1483.31C148.462 1475.12 151.441 1456.18 153.994 1441.28C156.654 1426.38 160.804 1401.48 163.464 1385.94C166.018 1370.41 169.635 1347.95 171.338 1335.93C173.147 1323.9 175.807 1305.28 177.19 1294.43C178.68 1283.57 181.02 1263.99 182.51 1250.8C184 1237.6 186.128 1215.15 187.298 1200.78C188.468 1186.42 189.958 1165.35 190.596 1153.96C191.128 1142.57 191.66 1114.8 191.66 1092.24C191.66 1069.68 191.128 1041.91 190.596 1030.52C189.958 1019.13 188.575 998.064 187.404 983.699C186.234 969.333 184.106 948.263 182.616 936.876C181.127 925.49 178.041 904.42 175.594 890.054C173.253 875.689 168.465 849.83 164.954 832.591C161.443 815.352 155.271 787.046 151.122 769.807Z" fill="#55A0D2"/>
<path d="M699.193 721.921C706.216 697.658 712.919 675.418 713.877 672.651C714.834 669.778 715.686 667.65 715.792 667.862C715.898 668.075 711.004 688.187 704.939 712.45C698.874 736.712 691.533 766.827 688.66 779.384C685.787 791.941 680.68 815.458 677.381 831.527C674.083 847.595 669.614 871.858 667.273 885.266C665.039 898.78 661.953 918.893 660.463 929.96C658.974 941.133 657.059 957.627 656.101 966.672C655.25 975.717 653.76 994.446 652.696 1008.17C651.313 1027.43 650.887 1046.59 650.781 1091.18C650.781 1128.53 651.313 1155.98 652.164 1168.33C652.909 1178.86 654.292 1195.89 655.143 1206.1C655.995 1216.32 658.123 1237.71 659.931 1253.46C661.634 1269.21 665.251 1297.51 667.911 1316.24C670.572 1334.97 675.04 1364.45 677.913 1381.69C680.786 1398.93 685.042 1424.04 687.489 1437.55C689.83 1451.07 692.703 1469.26 693.873 1477.99C695.044 1486.82 696.321 1499.49 696.746 1506.19C697.065 1512.89 697.065 1521.09 696.64 1524.28C696.321 1527.47 695.363 1530.98 694.618 1532.16C693.661 1533.65 692.916 1533.86 691.213 1533.11C690.043 1532.47 687.276 1528.75 685.148 1524.71C683.02 1520.66 679.084 1510.87 676.53 1503C673.87 1495.12 669.508 1480.01 666.954 1469.48C664.294 1458.94 658.974 1434.79 655.143 1415.74C651.313 1396.69 646.312 1370.41 643.971 1357.21C641.63 1344.02 638.545 1325.39 637.055 1315.71C635.566 1306.03 633.118 1289.32 631.735 1278.46C630.246 1267.61 628.117 1248.99 626.947 1236.96C625.777 1224.94 624.287 1208.02 623.649 1199.19C623.01 1190.46 622.159 1166.94 621.84 1147.04C621.521 1125.12 621.733 1100.86 622.478 1085.32C623.117 1071.28 624.713 1048.5 625.883 1034.78C627.053 1021.05 629.182 999.235 630.565 986.359C632.054 973.483 634.927 952.945 636.949 940.601C638.97 928.363 642.056 910.592 643.865 901.228C645.78 891.863 649.398 874.837 651.951 863.451C656.527 843.339 656.739 842.594 660.357 839.827C663.549 837.273 664.613 835.038 668.337 823.865C670.571 816.629 675.572 800.773 679.403 788.429C683.127 776.192 692.065 746.183 699.193 721.921Z" fill="#55A0D2"/>
<path d="M146.973 97.2701L151.016 96.9509C153.144 96.8445 155.272 96.8445 155.804 96.9509C156.229 97.1637 155.91 98.1215 155.272 99.1856C154.527 100.25 152.718 102.591 151.229 104.506C149.739 106.422 148.249 107.912 147.824 107.912C147.292 107.912 146.973 105.57 146.973 97.2701Z" fill="#737C80"/>
<path d="M97.8153 156.011C97.7089 151.967 98.0281 148.349 98.5601 148.03C99.0921 147.604 102.497 147.285 106.221 147.285C109.945 147.285 112.924 147.497 112.924 147.817C112.924 148.136 109.945 151.648 106.327 155.798C102.603 159.841 99.3049 163.247 98.8793 163.247C98.3473 163.247 97.9217 159.948 97.8153 156.011Z" fill="#737C80"/>
<path d="M717.921 148.881L722.177 148.242C724.411 147.923 730.476 147.497 744.946 147.285V162.183C744.946 170.376 744.84 177.08 744.734 177.08C744.521 177.187 738.456 170.802 717.921 148.881Z" fill="#737C80"/>
<path d="M638.225 46.4044C632.48 38.1041 628.011 30.9744 628.117 30.6552C628.117 30.2295 630.884 30.2295 634.182 30.6552C637.48 31.0808 642.268 32.3578 644.928 33.5284C647.589 34.6989 653.76 38.9555 658.761 42.7864C663.761 46.7237 674.508 55.6624 682.701 62.6857C690.787 69.709 705.471 83.33 715.153 93.0137C724.836 102.697 740.796 119.298 750.585 129.939C760.374 140.687 769.099 151.009 770.056 152.818C771.014 154.734 772.503 158.671 773.248 161.651C774.099 164.524 775.057 171.973 775.376 178.145C776.015 187.403 775.802 189.957 774.312 192.723C773.355 194.639 771.652 196.448 770.482 196.767C769.311 197.086 766.651 196.554 760.906 194.107V149.413L757.926 148.668C756.33 148.349 746.542 147.923 717.175 147.817L704.62 133.983L704.513 116.105C704.513 98.5472 704.513 98.3344 702.066 97.8023C700.789 97.483 698.874 97.2702 697.81 97.2702C696.214 97.2702 696.001 98.6536 695.469 123.342L682.701 107.167C675.678 98.3344 665.145 84.5006 659.186 76.4131C653.334 68.2192 643.865 54.8111 638.225 46.4044Z" fill="#B7CCD6"/>
<path d="M176.232 49.9161C183.786 43.6377 192.405 37.1464 195.384 35.4438C198.257 33.7412 201.343 32.3578 201.981 32.3578C202.726 32.3578 203.364 32.5706 203.364 32.8899C203.364 33.2091 199.427 39.1683 194.533 46.1916C186.34 58.2164 185.595 58.9612 182.297 58.9612C178.892 58.9612 178.892 59.0677 178.892 63.9627C178.892 68.7513 178.254 69.9219 169.529 81.3081C164.421 88.0122 159.527 94.2906 158.676 95.1419C157.718 96.2061 154.845 96.951 151.228 97.0574C148.036 97.1638 144.099 97.5895 139.524 98.3344V119.085L114.519 147.391H108.135C104.624 147.391 99.0912 147.604 95.8992 147.923C92.7071 148.136 88.4511 148.668 83.131 149.413L82.599 181.763L78.0238 185.274C74.2997 188.254 73.2357 188.573 71.8525 187.403C70.3629 186.339 70.2565 184.423 70.6821 174.952C71.0013 168.78 71.5333 161.863 71.9589 159.522C72.2781 157.181 73.4485 153.776 74.4061 151.86C75.3637 149.945 83.131 140.9 91.6431 131.642C100.155 122.384 113.562 108.231 121.435 100.143C129.309 91.9495 141.758 79.9248 149.1 73.3271C156.441 66.623 168.571 56.1945 176.232 49.9161Z" fill="#B7CCD6"/>
<path fill-rule="evenodd" clip-rule="evenodd" d="M427.764 516.009C453.832 516.221 478.305 516.647 482.135 516.966C485.966 517.179 492.882 517.711 497.563 518.137C502.245 518.456 508.948 518.988 512.459 519.201C515.971 519.52 520.971 519.946 523.631 520.159C526.292 520.478 531.08 521.01 534.272 521.329C537.464 521.649 545.869 522.713 552.892 523.564C559.914 524.415 573.746 526.331 583.748 527.927C593.643 529.417 611.838 532.716 624.18 535.27C636.417 537.823 647.908 540.165 649.717 540.59C651.419 540.909 654.824 541.654 657.165 542.293C659.506 542.931 661.846 543.676 662.485 543.783C663.017 543.995 664.932 544.421 666.741 544.74C668.443 545.06 670.678 545.592 671.529 545.911C672.38 546.23 674.189 546.762 675.466 546.975C676.849 547.188 679.19 547.933 680.786 548.678C682.488 549.316 683.978 549.955 684.297 550.061C684.616 550.061 687.383 551.338 690.468 552.721C693.448 554.211 696.001 555.701 696.001 556.127C696.001 556.659 696.746 556.978 697.597 556.978C698.448 556.978 699.193 557.51 699.193 558.042C699.193 558.574 699.938 559.106 700.789 559.106C701.64 559.106 702.598 559.851 702.917 560.702C703.236 561.554 704.088 562.299 704.726 562.299C705.471 562.192 708.024 564.321 710.365 566.874C712.706 569.535 715.685 572.94 717.069 574.643C718.345 576.345 721.112 581.027 723.027 585.178C725.049 589.328 726.964 594.329 727.389 596.351C727.709 598.373 728.347 602.417 728.56 605.396C728.773 608.269 729.198 612.632 729.517 614.973C729.943 617.74 729.73 618.698 729.092 617.634C728.347 616.357 727.921 616.889 726.857 619.762C726.113 621.784 725.368 624.019 725.261 624.551C725.049 625.083 723.453 629.233 721.537 633.596C719.729 637.959 715.366 649.239 711.855 658.603C708.344 667.968 705.152 676.374 704.832 677.226C704.513 678.077 703.981 679.673 703.768 680.631C703.662 681.695 702.704 684.036 701.853 685.739C701.002 687.441 699.619 688.931 698.874 688.931C698.236 688.931 697.065 688.399 696.32 687.654C695.469 686.59 695.469 685.419 696.533 682.546C697.384 680.524 701.215 667.755 705.152 654.347C711.961 630.616 712.174 629.552 711.749 620.294C711.429 612.42 710.791 609.546 708.131 603.8C706.322 599.969 702.811 594.329 700.47 591.243C698.023 588.264 692.809 583.475 688.766 580.708C684.829 577.941 678.232 574.323 674.189 572.834C670.039 571.237 656.952 567.726 644.929 565.065C632.905 562.405 613.966 558.574 602.9 556.552C591.728 554.53 574.066 551.657 563.532 550.167C552.998 548.678 535.016 546.549 523.631 545.379C512.247 544.208 494.265 542.612 483.731 541.867C473.197 541.229 445.533 540.59 422.019 540.59C398.61 540.59 370.627 541.229 359.774 541.867C348.921 542.612 330.726 544.208 319.341 545.379C307.957 546.549 290.188 548.678 279.973 550.061C269.759 551.551 251.99 554.424 240.605 556.552C229.22 558.574 210.068 562.405 198.044 565.065C186.021 567.726 172.827 571.237 168.784 572.834C164.634 574.323 158.25 577.835 154.42 580.495C150.589 583.156 145.695 587.519 143.354 590.073C141.12 592.627 137.609 598.054 135.693 602.204C133.672 606.354 131.544 612.739 130.905 616.57C129.948 621.784 129.948 625.083 130.905 629.871C131.544 633.383 135.587 648.387 139.737 663.179C147.504 689.889 147.504 689.995 145.057 690.527C143.78 690.847 142.716 691.698 142.716 692.443C142.716 693.081 140.801 688.186 138.566 681.482C136.332 674.778 131.544 661.583 128.032 652.218C124.415 642.854 119.84 631.361 117.924 626.679C115.796 621.89 113.987 618.911 113.775 619.762C113.455 620.613 113.349 617.102 113.562 611.781C113.775 606.46 114.307 601.033 114.626 599.543C115.051 598.054 115.477 596.67 115.584 596.351C115.69 596.032 116.116 594.329 116.648 592.627C117.073 590.924 119.414 586.135 121.755 581.985C124.202 577.835 126.862 573.579 127.82 572.514C128.671 571.45 131.118 568.79 133.14 566.662C135.268 564.533 138.566 561.554 140.588 559.958C142.609 558.361 146.972 555.595 150.164 553.892C153.356 552.083 159.634 549.529 163.996 548.146C168.358 546.656 175.806 544.74 180.488 543.676C185.17 542.719 190.383 541.548 192.192 541.016C193.895 540.484 198.044 539.633 201.236 538.994C204.428 538.356 213.26 536.547 220.921 535.057C228.475 533.461 235.71 532.077 236.881 531.971C238.051 531.758 244.967 530.587 252.309 529.31C259.651 528.14 266.779 526.863 268.269 526.65C269.759 526.437 273.057 525.905 275.717 525.586C278.377 525.267 281.463 524.841 282.633 524.628C283.804 524.415 287.847 523.883 291.677 523.458C295.508 523.032 299.764 522.5 301.253 522.393C302.743 522.181 306.786 521.755 310.297 521.329C313.809 520.904 318.597 520.478 320.938 520.265C323.278 520.052 329.024 519.52 333.706 519.095C338.387 518.775 343.92 518.243 345.942 518.137C347.963 517.924 356.369 517.498 364.562 517.073C372.755 516.647 379.671 516.115 379.884 515.902C380.096 515.689 401.589 515.689 427.764 516.009V516.009ZM425.211 648.919C430.424 648.919 432.871 649.026 430.531 649.239C428.19 649.452 423.827 649.452 420.954 649.239C417.975 649.026 419.89 648.919 425.211 648.919ZM191.341 1430.95L196.342 1432.13C200.917 1433.19 201.236 1433.51 200.704 1435.96C200.385 1437.45 197.725 1452.02 194.746 1468.41C191.767 1484.8 189.319 1500.66 189.319 1503.53C189.319 1506.51 189.958 1510.55 190.809 1512.57C191.66 1514.6 194.001 1518.11 196.023 1520.45C198.044 1522.68 201.449 1525.45 203.577 1526.51C205.812 1527.68 214.643 1530.88 223.261 1533.75C231.986 1536.62 245.712 1540.77 253.905 1542.9C262.098 1545.03 274.972 1547.9 282.633 1549.29C290.294 1550.67 302.424 1552.59 309.765 1553.54C317.107 1554.39 334.557 1555.67 348.602 1556.31C364.456 1557.05 399.355 1557.27 440.639 1556.95C477.241 1556.63 512.14 1555.88 518.311 1555.25C524.483 1554.61 534.697 1553.33 541.188 1552.48C547.572 1551.52 557.893 1549.82 564.064 1548.65C570.235 1547.48 581.726 1544.82 589.6 1542.8C597.474 1540.77 612.157 1536.41 622.052 1533.11C639.715 1527.26 640.247 1526.94 645.993 1521.19C649.717 1517.36 652.377 1513.64 653.228 1510.98C653.866 1508.64 654.505 1505.55 654.505 1504.06C654.505 1502.57 651.845 1486.5 648.546 1468.41C645.248 1450.32 642.056 1435.1 641.417 1434.68C640.673 1434.25 640.992 1433.93 642.269 1434.04C643.439 1434.04 646.205 1433.83 648.333 1433.4C650.781 1433.08 652.377 1433.19 652.377 1433.83C652.377 1434.36 655.994 1455.11 660.463 1479.9C664.932 1504.59 668.656 1525.02 668.869 1525.34C668.975 1525.66 668.55 1525.88 667.911 1525.88C667.273 1525.88 657.91 1529.39 647.057 1533.75C636.204 1538.01 618.541 1544.07 607.688 1547.16C596.835 1550.24 579.598 1554.5 569.384 1556.63C559.169 1558.65 545.018 1561.1 537.996 1561.95C530.973 1562.8 517.354 1564.08 507.671 1564.72C496.074 1565.57 462.877 1565.78 409.782 1565.46C343.495 1565.14 326.896 1564.72 315.085 1563.23C307.212 1562.27 294.763 1560.46 287.421 1559.29C280.08 1558.01 265.503 1554.93 254.969 1552.27C244.435 1549.71 229.326 1545.46 221.453 1542.9C213.579 1540.35 199.853 1535.24 191.128 1531.73C182.297 1528.22 175.062 1525.13 174.955 1525.02C174.955 1524.92 178.36 1505.12 182.616 1481.18C186.979 1457.24 190.703 1436.06 190.915 1434.25L191.341 1430.95ZM397.014 1459.69C401.377 1459.69 403.079 1459.9 400.738 1460.11C398.397 1460.43 394.78 1460.43 392.758 1460.11C390.737 1459.9 392.652 1459.69 397.014 1459.69ZM451.811 1459.69C456.492 1459.69 458.62 1459.9 456.599 1460.11C454.577 1460.32 450.747 1460.32 448.087 1460.11C445.427 1459.9 447.129 1459.79 451.811 1459.69Z" fill="#3A464D"/>
<path d="M35.2515 742.563C40.7844 740.435 48.2324 738.094 51.7437 737.349C55.2549 736.498 58.9789 735.859 60.043 735.859C61.0006 735.753 62.171 736.391 62.5966 737.03C62.9158 737.881 61.9582 739.371 60.1494 740.754C58.4469 742.138 53.2333 744.798 48.5516 746.82C43.87 748.842 35.7835 751.821 30.4635 753.311C25.1434 754.801 19.717 755.972 18.3337 755.759C16.8441 755.546 15.5673 754.907 15.3545 754.375C15.1417 753.843 17.2697 751.821 20.0362 749.906C22.8026 748.097 29.7187 744.798 35.2515 742.563Z" fill="#55A0D2"/>
<path d="M781.761 739.797C780.484 738.945 780.059 737.881 780.591 737.03C781.229 735.966 782.719 735.753 786.336 736.285C788.996 736.711 795.061 738.2 799.743 739.69C804.425 741.18 811.341 743.84 815.171 745.543C819.002 747.246 823.683 749.8 825.598 751.289C827.62 752.779 828.684 754.375 828.258 755.014C827.62 755.865 825.705 756.078 822.087 755.546C819.214 755.12 812.617 753.418 807.51 751.609C802.297 749.906 794.955 746.926 791.018 744.905C786.975 742.883 782.825 740.648 781.761 739.797Z" fill="#55A0D2"/>
<circle cx="425.5" cy="1075.5" r="145.5" fill="#FF175D"/>
</svg>
